<svg width="52" height="52" viewBox="0 0 52 52" fill="none" xmlns="http://www.w3.org/2000/svg">
<circle cx="26" cy="26" r="25.5" stroke="#F2F2F2"/>
<path d="M32 22C32 20.4087 31.3679 18.8826 30.2426 17.7574C29.1174 16.6321 27.5913 16 26 16C24.4087 16 22.8826 16.6321 21.7574 17.7574C20.6321 18.8826 20 20.4087 20 22C20 29 17 31 17 31H35C35 31 32 29 32 22Z" stroke="#A2A2A2" stroke-width="1.5" stroke-linecap="round" stroke-linejoin="round"/>
<path d="M27.73 35C27.5542 35.3031 27.3019 35.5547 26.9982 35.7295C26.6946 35.9044 26.3504 35.9965 26 35.9965C25.6496 35.9965 25.3054 35.9044 25.0018 35.7295C24.6982 35.5547 24.4458 35.3031 24.27 35" stroke="#A2A2A2" stroke-width="1.5" stroke-linecap="round" stroke-linejoin="round"/>
</svg>
