<svg width="262" height="130" viewBox="0 0 262 130" fill="none" xmlns="http://www.w3.org/2000/svg">
    <path
        d="M150.861 86.7615V128.452H162.006V112.787H176.923V103.674H162.006V96.5849H177.524V86.7615H150.861ZM237.732 96.5239H241.627C245.28 96.5239 247.377 98.2546 247.377 101.172C247.377 104.149 245.28 105.876 241.627 105.876H237.732V96.5239ZM226.109 86.7615V128.452H237.732V114.635H240.188L248.456 128.452H262L251.513 113.087C256.904 110.824 259.478 106.356 259.478 100.7C259.478 92.5385 254.026 86.7655 242.587 86.7655H226.109V86.7615ZM67.2875 97.8971C67.2875 106.116 74.415 109.63 78.5551 111.178C84.9633 113.619 86.7003 114.513 86.7003 116.837C86.7003 119.104 84.8448 120.233 82.2701 120.233C78.2526 120.233 74.6603 117.613 72.204 113.205L64.2918 118.925C67.0504 125.178 74.1208 130 82.7482 130C90.9588 130 98.9855 125.295 98.9855 116.419C98.9855 109.748 94.5553 105.697 88.3228 103.556C82.9322 101.651 79.1559 100.461 79.1559 97.7752C79.1559 96.1664 80.5944 95.1548 82.9281 95.1548C85.7439 95.1548 88.3187 96.7027 90.1782 99.6806L98.9242 94.8583C96.7091 90.6291 91.6168 85.6849 82.691 85.6849C74.2352 85.6889 67.2875 90.1537 67.2875 97.8971ZM123.842 103.853L127.974 113.201H119.706L123.842 103.853ZM101.017 128.452H114.197L117.671 121.72H130.013L133.553 128.452H146.733L123.846 83.9623L101.017 128.452ZM199.09 103.853L203.222 113.201H194.954L199.09 103.853ZM176.261 128.452H189.445L192.919 121.72H205.261L208.797 128.452H221.981L199.094 83.9623L176.261 128.452ZM92.4506 33.342V48.1096H75.9108V33.342H64.2877V75.0327H75.9108V58.4124H92.4506V75.0327H104.07V33.342H92.4506ZM169.673 43.1045H173.572C177.225 43.1045 179.322 44.8352 179.322 47.7521C179.322 50.73 177.225 52.4566 173.572 52.4566H169.673V43.1045ZM158.054 33.342V75.0327H169.673V61.2157H172.129L180.397 75.0327H193.933L183.446 59.6678C188.836 57.4049 191.415 52.936 191.415 47.2809C191.415 39.119 185.963 33.3461 174.52 33.3461H158.054V33.342ZM131.035 50.4335L135.171 59.7815H126.903L131.035 50.4335ZM108.206 75.0327H121.386L124.864 68.3009H137.206L140.741 75.0327H153.922L131.035 30.5428L108.206 75.0327ZM33.5133 3.3598C22.2947 10.7457 17.9912 12.7241 6.77264 20.1019C2.29339 23.0473 0.0782761 26.8824 0.0741892 31.8794C0.0741892 43.9779 -0.105627 49.8037 0.0946312 61.8982C0.229499 70.0763 5.95116 74.9027 15.0527 74.9961C21.2893 75.0652 21.6735 75.0124 27.9101 75.0124C34.9273 75.0164 41.9405 75.0245 48.9536 75.0164C49.3705 75.0123 49.7628 74.9839 50.147 74.9473C50.1838 74.9798 50.2205 75.0002 50.2532 75.0327C50.2941 74.992 50.3432 74.9677 50.384 74.9311C51.9207 74.7402 53.1304 74.212 53.9642 73.3548C54.4587 73.1192 54.8224 72.8023 54.896 72.2173C54.9164 72.0345 54.9368 71.8354 54.9573 71.6404C55.1371 71.0269 55.2352 70.3525 55.182 69.5603C55.1739 69.4506 55.1575 69.349 55.1412 69.2394C55.4477 63.7345 55.272 49.3122 55.0022 45.0302C54.6834 40.0291 56.5 36.974 45.9007 37.0349C40.649 36.8155 35.3769 36.9618 30.117 36.974C26.9497 36.978 24.0684 37.5793 23.9254 41.1463C23.766 45.0505 26.8393 45.7614 30.2192 45.8061C35.0336 45.8711 39.8521 45.8264 45.3817 45.8264C45.3817 49.1253 45.2182 60.4966 45.2345 64.9086C34.0813 64.8964 28.7765 64.8273 17.6234 64.9858C13.2994 65.0508 11.2192 64.0433 11.3254 59.6231C11.5911 48.7759 11.2601 44.1892 11.5625 33.342C11.6156 31.4041 13.0174 28.8731 14.6971 27.6909C24.8899 20.5488 28.6539 19.3909 38.8916 12.2976C41.9895 10.1525 44.2046 10.506 47.09 12.517C54.5772 17.7374 58.0715 21.5929 65.8979 26.1877C66.8011 26.923 67.9414 27.378 69.2001 27.378C72.1019 27.378 74.4518 25.042 74.4518 22.1616C74.4518 20.8494 73.9491 19.6631 73.1481 18.749L73.1604 18.7368C73.1318 18.7084 73.0991 18.68 73.0664 18.6556C72.7925 18.359 72.4983 18.0828 72.1632 17.8552C63.0248 9.79093 63.2373 10.64 52.219 3.44511C48.6961 1.1416 45.7168 1.09212e-05 42.7619 1.09212e-05C39.8235 -0.00405171 36.9095 1.12535 33.5133 3.3598Z"
        fill="white" />
</svg>
