<svg width="22" height="22" viewBox="0 0 22 22" fill="none" xmlns="http://www.w3.org/2000/svg">
<path d="M11.9166 20.8543H4.58325C2.36492 20.8543 1.14575 19.6352 1.14575 17.4168V10.0835C1.14575 7.86516 2.36492 6.646 4.58325 6.646H9.16658C9.54242 6.646 9.85408 6.95766 9.85408 7.3335V17.4168C9.85408 18.8652 10.4683 19.4793 11.9166 19.4793C12.2924 19.4793 12.6041 19.791 12.6041 20.1668C12.6041 20.5427 12.2924 20.8543 11.9166 20.8543ZM4.58325 8.021C3.13492 8.021 2.52075 8.63516 2.52075 10.0835V17.4168C2.52075 18.8652 3.13492 19.4793 4.58325 19.4793H8.98324C8.65324 18.9385 8.47908 18.251 8.47908 17.4168V8.021H4.58325Z" fill="#A2A2A2"/>
<path d="M9.16659 8.02067H4.58325C4.20742 8.02067 3.89575 7.709 3.89575 7.33317V5.49984C3.89575 4.1065 5.02325 2.979 6.41659 2.979H9.26741C9.47824 2.979 9.67993 3.07982 9.80826 3.24482C9.9366 3.41898 9.98241 3.63901 9.92741 3.84067C9.87241 4.04234 9.85409 4.2715 9.85409 4.58317V7.33317C9.85409 7.709 9.54242 8.02067 9.16659 8.02067ZM5.27075 6.64567H8.47909V4.58317C8.47909 4.50067 8.47909 4.42734 8.47909 4.354H6.41659C5.78409 4.354 5.27075 4.86734 5.27075 5.49984V6.64567Z" fill="#A2A2A2"/>
<path d="M12.8333 12.6043C12.4574 12.6043 12.1458 12.2927 12.1458 11.9168V7.3335C12.1458 6.95766 12.4574 6.646 12.8333 6.646C13.2091 6.646 13.5208 6.95766 13.5208 7.3335V11.9168C13.5208 12.2927 13.2091 12.6043 12.8333 12.6043Z" fill="#A2A2A2"/>
<path d="M16.5 12.6043C16.1242 12.6043 15.8125 12.2927 15.8125 11.9168V7.3335C15.8125 6.95766 16.1242 6.646 16.5 6.646C16.8758 6.646 17.1875 6.95766 17.1875 7.3335V11.9168C17.1875 12.2927 16.8758 12.6043 16.5 12.6043Z" fill="#A2A2A2"/>
<path d="M16.4999 20.8543H12.8333C12.4574 20.8543 12.1458 20.5427 12.1458 20.1668V16.5002C12.1458 15.6202 12.8699 14.896 13.7499 14.896H15.5833C16.4633 14.896 17.1874 15.6202 17.1874 16.5002V20.1668C17.1874 20.5427 16.8758 20.8543 16.4999 20.8543ZM13.5208 19.4793H15.8124V16.5002C15.8124 16.3718 15.7116 16.271 15.5833 16.271H13.7499C13.6216 16.271 13.5208 16.3718 13.5208 16.5002V19.4793Z" fill="#A2A2A2"/>
<path d="M5.5 16.2707C5.12417 16.2707 4.8125 15.959 4.8125 15.5832V11.9165C4.8125 11.5407 5.12417 11.229 5.5 11.229C5.87583 11.229 6.1875 11.5407 6.1875 11.9165V15.5832C6.1875 15.959 5.87583 16.2707 5.5 16.2707Z" fill="#A2A2A2"/>
<path d="M17.4167 20.8543H11.9167C9.69841 20.8543 8.47925 19.6352 8.47925 17.4168V4.5835C8.47925 2.36516 9.69841 1.146 11.9167 1.146H17.4167C19.6351 1.146 20.8542 2.36516 20.8542 4.5835V17.4168C20.8542 19.6352 19.6351 20.8543 17.4167 20.8543ZM11.9167 2.521C10.4684 2.521 9.85425 3.13516 9.85425 4.5835V17.4168C9.85425 18.8652 10.4684 19.4793 11.9167 19.4793H17.4167C18.8651 19.4793 19.4792 18.8652 19.4792 17.4168V4.5835C19.4792 3.13516 18.8651 2.521 17.4167 2.521H11.9167Z" fill="#A2A2A2"/>
</svg>
