<svg width="15" height="14" viewBox="0 0 15 14" fill="none" xmlns="http://www.w3.org/2000/svg">
<path d="M13.75 7.00015H3.125V3.5065C3.12281 3.28142 3.18221 3.06002 3.29678 2.86627C3.41135 2.67252 3.57672 2.51379 3.775 2.40725C3.99426 2.28843 4.24411 2.2381 4.49228 2.26275C4.36596 2.64529 4.34802 3.05532 4.44043 3.44743C4.53284 3.83954 4.732 4.19841 5.01584 4.48428L5.67871 5.14712C5.73673 5.20517 5.80562 5.25122 5.88144 5.28263C5.95726 5.31405 6.03853 5.33022 6.12061 5.33022C6.20268 5.33022 6.28395 5.31405 6.35977 5.28263C6.43559 5.25122 6.50448 5.20517 6.5625 5.14712L8.77197 2.93765C8.83002 2.87963 8.87607 2.81074 8.90749 2.73492C8.93891 2.65909 8.95508 2.57783 8.95508 2.49575C8.95508 2.41368 8.93891 2.33241 8.90749 2.25659C8.87607 2.18077 8.83002 2.11188 8.77197 2.05386L8.10913 1.39101C7.74021 1.02375 7.25222 0.800355 6.73313 0.761103C6.21405 0.72185 5.69801 0.869322 5.27806 1.17693C4.89941 1.02905 4.49037 0.975916 4.08651 1.02215C3.68265 1.06838 3.29619 1.21257 2.96076 1.44219C2.62533 1.67181 2.35107 1.97991 2.16184 2.33968C1.97261 2.69945 1.87415 3.1 1.875 3.5065V7.00015H1.25C1.08424 7.00015 0.925268 7.06599 0.808058 7.1832C0.690848 7.30041 0.625 7.45939 0.625 7.62515C0.625 7.79091 0.690848 7.94988 0.808058 8.06709C0.925268 8.1843 1.08424 8.25015 1.25 8.25015H1.875V10.1251C1.87619 10.5116 1.99698 10.8883 2.22079 11.2034C2.44461 11.5185 2.76046 11.7565 3.125 11.8849V12.6251C3.125 12.7909 3.19085 12.9499 3.30806 13.0671C3.42527 13.1843 3.58424 13.2501 3.75 13.2501C3.91576 13.2501 4.07473 13.1843 4.19194 13.0671C4.30915 12.9499 4.375 12.7909 4.375 12.6251V12.0001H10.625V12.6251C10.625 12.7909 10.6908 12.9499 10.8081 13.0671C10.9253 13.1843 11.0842 13.2501 11.25 13.2501C11.4158 13.2501 11.5747 13.1843 11.6919 13.0671C11.8092 12.9499 11.875 12.7909 11.875 12.6251V11.885C12.2395 11.7566 12.5554 11.5185 12.7792 11.2034C13.003 10.8883 13.1238 10.5116 13.125 10.1251V8.25015H13.75C13.9158 8.25015 14.0747 8.1843 14.1919 8.06709C14.3092 7.94988 14.375 7.79091 14.375 7.62515C14.375 7.45939 14.3092 7.30041 14.1919 7.1832C14.0747 7.06599 13.9158 7.00015 13.75 7.00015ZM5.89966 2.2748C6.07562 2.09931 6.31399 2.00076 6.5625 2.00076C6.81101 2.00076 7.04938 2.09931 7.22534 2.2748L7.44629 2.49575L6.12063 3.82143L5.89967 3.60049C5.72409 3.42458 5.62547 3.18619 5.62546 2.93765C5.62546 2.68911 5.72407 2.45071 5.89966 2.2748ZM11.875 10.1251C11.8749 10.2909 11.809 10.4498 11.6918 10.567C11.5746 10.6842 11.4157 10.75 11.25 10.7501H3.75C3.58427 10.75 3.42537 10.6842 3.30818 10.567C3.19099 10.4498 3.12511 10.2909 3.125 10.1251V8.25015H11.875V10.1251Z" fill="#8C8C8C"/>
</svg>
