<svg width="15" height="10" viewBox="0 0 15 10" fill="none" xmlns="http://www.w3.org/2000/svg">
<path d="M4.375 5.3125C4.74584 5.3125 5.10835 5.20253 5.41669 4.99651C5.72504 4.79048 5.96536 4.49764 6.10728 4.15503C6.24919 3.81242 6.28632 3.43542 6.21397 3.07171C6.14163 2.70799 5.96305 2.3739 5.70083 2.11167C5.4386 1.84945 5.10451 1.67088 4.74079 1.59853C4.37708 1.52618 4.00008 1.56331 3.65747 1.70523C3.31486 1.84714 3.02202 2.08746 2.81599 2.39581C2.60997 2.70415 2.5 3.06666 2.5 3.4375C2.5 3.93478 2.69754 4.41169 3.04918 4.76333C3.40081 5.11496 3.87772 5.3125 4.375 5.3125ZM4.375 2.8125C4.49861 2.8125 4.61945 2.84916 4.72223 2.91783C4.82501 2.98651 4.90512 3.08412 4.95243 3.19832C4.99973 3.31253 5.01211 3.43819 4.98799 3.55943C4.96388 3.68067 4.90435 3.79203 4.81694 3.87944C4.72953 3.96685 4.61817 4.02638 4.49693 4.05049C4.37569 4.07461 4.25003 4.06223 4.13582 4.01492C4.02162 3.96762 3.92401 3.88751 3.85533 3.78473C3.78666 3.68195 3.75 3.56111 3.75 3.4375C3.75 3.27174 3.81585 3.11277 3.93306 2.99556C4.05027 2.87835 4.20924 2.8125 4.375 2.8125ZM12.5 1.5625H7.5C7.33424 1.5625 7.17527 1.62835 7.05806 1.74556C6.94085 1.86277 6.875 2.02174 6.875 2.1875V5.9375H1.875V0.9375C1.875 0.77174 1.80915 0.612769 1.69194 0.495558C1.57473 0.378348 1.41576 0.3125 1.25 0.3125C1.08424 0.3125 0.925269 0.378348 0.808058 0.495558C0.690848 0.612769 0.625 0.77174 0.625 0.9375V9.0625C0.625 9.22826 0.690848 9.38723 0.808058 9.50444C0.925269 9.62165 1.08424 9.6875 1.25 9.6875C1.41576 9.6875 1.57473 9.62165 1.69194 9.50444C1.80915 9.38723 1.875 9.22826 1.875 9.0625V7.1875H13.125V9.0625C13.125 9.22826 13.1908 9.38723 13.3081 9.50444C13.4253 9.62165 13.5842 9.6875 13.75 9.6875C13.9158 9.6875 14.0747 9.62165 14.1919 9.50444C14.3092 9.38723 14.375 9.22826 14.375 9.0625V3.4375C14.375 2.94022 14.1775 2.46331 13.8258 2.11167C13.4742 1.76004 12.9973 1.5625 12.5 1.5625ZM13.125 5.9375H8.125V2.8125H12.5C12.6658 2.8125 12.8247 2.87835 12.9419 2.99556C13.0592 3.11277 13.125 3.27174 13.125 3.4375V5.9375Z" fill="#8C8C8C"/>
</svg>
