<svg width="16" height="16" viewBox="0 0 16 16" fill="none" xmlns="http://www.w3.org/2000/svg">
<g clip-path="url(#clip0_532_4985)">
<path d="M13.2442 4.66699H2.64866C1.91719 4.66699 1.32422 5.26395 1.32422 6.00033V12.667C1.32422 13.4034 1.91719 14.0003 2.64866 14.0003H13.2442C13.9757 14.0003 14.5687 13.4034 14.5687 12.667V6.00033C14.5687 5.26395 13.9757 4.66699 13.2442 4.66699Z" stroke="#323232" stroke-linecap="round" stroke-linejoin="round"/>
<path d="M10.5956 14V3.33333C10.5956 2.97971 10.456 2.64057 10.2076 2.39052C9.95927 2.14048 9.62239 2 9.27112 2H6.62224C6.27097 2 5.93409 2.14048 5.68571 2.39052C5.43733 2.64057 5.29779 2.97971 5.29779 3.33333V14" stroke="#323232" stroke-linecap="round" stroke-linejoin="round"/>
</g>
<defs>
<clipPath id="clip0_532_4985">
<rect width="15.8933" height="16" fill="white"/>
</clipPath>
</defs>
</svg>
