<svg width="31" height="31" viewBox="0 0 31 31" fill="none" xmlns="http://www.w3.org/2000/svg">
<rect width="31" height="31" rx="15.5" fill="#F9F9F9"/>
<path fill-rule="evenodd" clip-rule="evenodd" d="M11.2825 11.2825C11.4717 11.0933 11.7783 11.0933 11.9675 11.2825L15.5 14.815L19.0325 11.2825C19.2217 11.0933 19.5283 11.0933 19.7175 11.2825C19.9067 11.4717 19.9067 11.7783 19.7175 11.9675L16.185 15.5L19.7175 19.0325C19.9067 19.2217 19.9067 19.5283 19.7175 19.7175C19.5283 19.9067 19.2217 19.9067 19.0325 19.7175L15.5 16.185L11.9675 19.7175C11.7783 19.9067 11.4717 19.9067 11.2825 19.7175C11.0933 19.5283 11.0933 19.2217 11.2825 19.0325L14.815 15.5L11.2825 11.9675C11.0933 11.7783 11.0933 11.4717 11.2825 11.2825Z" fill="#222222"/>
</svg>
