<svg width="26" height="26" viewBox="0 0 26 26" fill="none" xmlns="http://www.w3.org/2000/svg">
<path d="M23.8334 7.854H17.3334C16.8892 7.854 16.5209 7.48567 16.5209 7.0415C16.5209 6.59734 16.8892 6.229 17.3334 6.229H23.8334C24.2775 6.229 24.6459 6.59734 24.6459 7.0415C24.6459 7.48567 24.2775 7.854 23.8334 7.854Z" fill="#323232"/>
<path d="M6.49996 7.854H2.16663C1.72246 7.854 1.35413 7.48567 1.35413 7.0415C1.35413 6.59734 1.72246 6.229 2.16663 6.229H6.49996C6.94413 6.229 7.31246 6.59734 7.31246 7.0415C7.31246 7.48567 6.94413 7.854 6.49996 7.854Z" fill="#323232"/>
<path d="M10.8333 11.6458C8.29829 11.6458 6.22913 9.57667 6.22913 7.04167C6.22913 4.50667 8.29829 2.4375 10.8333 2.4375C13.3683 2.4375 15.4375 4.50667 15.4375 7.04167C15.4375 9.57667 13.3683 11.6458 10.8333 11.6458ZM10.8333 4.0625C9.18663 4.0625 7.85413 5.395 7.85413 7.04167C7.85413 8.68833 9.18663 10.0208 10.8333 10.0208C12.48 10.0208 13.8125 8.68833 13.8125 7.04167C13.8125 5.395 12.48 4.0625 10.8333 4.0625Z" fill="#323232"/>
<path d="M23.8333 19.771H19.5C19.0558 19.771 18.6875 19.4027 18.6875 18.9585C18.6875 18.5143 19.0558 18.146 19.5 18.146H23.8333C24.2775 18.146 24.6458 18.5143 24.6458 18.9585C24.6458 19.4027 24.2775 19.771 23.8333 19.771Z" fill="#323232"/>
<path d="M8.66663 19.771H2.16663C1.72246 19.771 1.35413 19.4027 1.35413 18.9585C1.35413 18.5143 1.72246 18.146 2.16663 18.146H8.66663C9.11079 18.146 9.47913 18.5143 9.47913 18.9585C9.47913 19.4027 9.11079 19.771 8.66663 19.771Z" fill="#323232"/>
<path d="M15.1667 23.5623C12.6317 23.5623 10.5625 21.4932 10.5625 18.9582C10.5625 16.4232 12.6317 14.354 15.1667 14.354C17.7017 14.354 19.7708 16.4232 19.7708 18.9582C19.7708 21.4932 17.7017 23.5623 15.1667 23.5623ZM15.1667 15.979C13.52 15.979 12.1875 17.3115 12.1875 18.9582C12.1875 20.6048 13.52 21.9373 15.1667 21.9373C16.8133 21.9373 18.1458 20.6048 18.1458 18.9582C18.1458 17.3115 16.8133 15.979 15.1667 15.979Z" fill="#323232"/>
</svg>
