<svg width="22" height="22" viewBox="0 0 22 22" fill="none" xmlns="http://www.w3.org/2000/svg">
<path d="M21.0834 20.854H0.916748C0.540915 20.854 0.229248 20.5423 0.229248 20.1665C0.229248 19.7907 0.540915 19.479 0.916748 19.479H21.0834C21.4592 19.479 21.7709 19.7907 21.7709 20.1665C21.7709 20.5423 21.4592 20.854 21.0834 20.854Z" fill="#A2A2A2"/>
<path d="M18.1318 20.8633C17.756 20.8633 17.4443 20.5516 17.4443 20.1758V16.0874C17.4443 15.7116 17.756 15.3999 18.1318 15.3999C18.5077 15.3999 18.8193 15.7116 18.8193 16.0874V20.1758C18.8193 20.5516 18.5168 20.8633 18.1318 20.8633Z" fill="#A2A2A2"/>
<path d="M18.15 16.7748C16.6558 16.7748 15.4458 15.5648 15.4458 14.0706V11.9898C15.4458 10.4957 16.6558 9.28564 18.15 9.28564C19.6441 9.28564 20.8542 10.4957 20.8542 11.9898V14.0706C20.8542 15.5648 19.6441 16.7748 18.15 16.7748ZM18.15 10.6698C17.4166 10.6698 16.8208 11.2657 16.8208 11.999V14.0798C16.8208 14.8131 17.4166 15.409 18.15 15.409C18.8833 15.409 19.4792 14.8131 19.4792 14.0798V11.999C19.4792 11.2657 18.8833 10.6698 18.15 10.6698Z" fill="#A2A2A2"/>
<path d="M13.1082 20.8543C12.7324 20.8543 12.4207 20.5426 12.4207 20.1668V5.52763C12.4207 4.07013 11.8066 3.44678 10.3766 3.44678H4.66577C3.2266 3.44678 2.60327 4.07013 2.60327 5.52763V20.1668C2.60327 20.5426 2.2916 20.8543 1.91577 20.8543C1.53994 20.8543 1.22827 20.5426 1.22827 20.1668V5.52763C1.22827 3.30013 2.44744 2.07178 4.66577 2.07178H10.3766C12.5858 2.07178 13.7957 3.30013 13.7957 5.52763V20.1668C13.7957 20.5426 13.4841 20.8543 13.1082 20.8543Z" fill="#A2A2A2"/>
<path d="M9.85392 8.25H5.31641C4.94057 8.25 4.62891 7.93833 4.62891 7.5625C4.62891 7.18667 4.94057 6.875 5.31641 6.875H9.85392C10.2298 6.875 10.5414 7.18667 10.5414 7.5625C10.5414 7.93833 10.2298 8.25 9.85392 8.25Z" fill="#A2A2A2"/>
<path d="M9.85392 11.6875H5.31641C4.94057 11.6875 4.62891 11.3758 4.62891 11C4.62891 10.6242 4.94057 10.3125 5.31641 10.3125H9.85392C10.2298 10.3125 10.5414 10.6242 10.5414 11C10.5414 11.3758 10.2298 11.6875 9.85392 11.6875Z" fill="#A2A2A2"/>
<path d="M7.5625 20.854C7.18667 20.854 6.875 20.5423 6.875 20.1665V16.729C6.875 16.3532 7.18667 16.0415 7.5625 16.0415C7.93833 16.0415 8.25 16.3532 8.25 16.729V20.1665C8.25 20.5423 7.93833 20.854 7.5625 20.854Z" fill="#A2A2A2"/>
</svg>
