<svg width="29" height="28" viewBox="0 0 29 28" fill="none" xmlns="http://www.w3.org/2000/svg">
<g clip-path="url(#clip0_529_135)">
<path d="M28.2763 14C28.2763 20.988 23.1061 26.7799 16.3475 27.8299V18.0469H19.6417L20.2685 14H16.3475V11.3739C16.3475 10.2665 16.8953 9.1875 18.6515 9.1875H20.4342V5.74219C20.4342 5.74219 18.8161 5.46875 17.2692 5.46875C14.0401 5.46875 11.9294 7.40688 11.9294 10.9156V14H8.33966V18.0469H11.9294V27.8299C5.17077 26.7799 0.000488281 20.988 0.000488281 14C0.000488281 6.26828 6.33052 0 14.1384 0C21.9463 0 28.2763 6.26828 28.2763 14Z" fill="#1877F2"/>
<path d="M19.6414 18.0469L20.2682 14H16.3472V11.3739C16.3472 10.2667 16.8949 9.1875 18.6511 9.1875H20.4339V5.74219C20.4339 5.74219 18.816 5.46875 17.2692 5.46875C14.0398 5.46875 11.9291 7.40688 11.9291 10.9156V14H8.33936V18.0469H11.9291V27.8299C12.6489 27.9417 13.3866 28 14.1381 28C14.8896 28 15.6273 27.9417 16.3472 27.8299V18.0469H19.6414Z" fill="white"/>
</g>
<defs>
<clipPath id="clip0_529_135">
<rect width="28.2759" height="28" fill="white"/>
</clipPath>
</defs>
</svg>
