<svg width="18" height="16" viewBox="0 0 18 16" fill="none" xmlns="http://www.w3.org/2000/svg">
<path d="M8.59497 2.28448L9 2.84403L9.40503 2.28448C10.2126 1.16876 11.5118 0.50009 13.0176 0.5C14.1999 0.501459 15.3373 0.989143 16.1792 1.86237C17.0217 2.73628 17.4986 3.92493 17.5 5.16843C17.4997 7.8592 15.5613 10.3704 13.4493 12.2889C11.3604 14.1864 9.22417 15.3941 9.06388 15.4822L9.06387 15.4821L9.06092 15.4838C9.04112 15.4948 9.02026 15.5 9 15.5C8.97974 15.5 8.95888 15.4948 8.93909 15.4838L8.93612 15.4822C8.77583 15.3941 6.63957 14.1864 4.55073 12.2889C2.43867 10.3703 0.500129 7.85903 0.5 5.16815C0.501421 3.92476 0.9784 2.73622 1.82084 1.86237C2.66269 0.989142 3.80009 0.501459 4.98245 0.5C6.48816 0.50009 7.78737 1.16876 8.59497 2.28448Z" stroke="#323232"/>
</svg>