<svg width="18" height="16" viewBox="0 0 18 16" fill="none" xmlns="http://www.w3.org/2000/svg">
<path d="M13.0179 0C11.3585 0 9.90563 0.740174 9 1.9913C8.09437 0.740174 6.64152 0 4.98214 0C3.66125 0.00154431 2.39489 0.546512 1.46088 1.51534C0.52687 2.48418 0.00148881 3.79775 0 5.16789C0 11.0026 8.34027 15.7254 8.69545 15.9204C8.78906 15.9727 8.8937 16 9 16C9.1063 16 9.21094 15.9727 9.30455 15.9204C9.65973 15.7254 18 11.0026 18 5.16789C17.9985 3.79775 17.4731 2.48418 16.5391 1.51534C15.6051 0.546512 14.3387 0.00154431 13.0179 0Z" fill="#FF355A"/>
</svg>
