<svg width="22" height="22" viewBox="0 0 22 22" fill="none" xmlns="http://www.w3.org/2000/svg">
<path d="M20.1666 20.854H1.83325C1.45742 20.854 1.14575 20.5423 1.14575 20.1665C1.14575 19.7907 1.45742 19.479 1.83325 19.479H20.1666C20.5424 19.479 20.8541 19.7907 20.8541 20.1665C20.8541 20.5423 20.5424 20.854 20.1666 20.854Z" fill="white"/>
<path d="M3.39185 20.1665H2.01685L2.06268 9.13898C2.06268 8.35982 2.42018 7.63567 3.03435 7.15901L9.45101 2.16316C10.3585 1.45733 11.6327 1.45733 12.5494 2.16316L18.966 7.14983C19.571 7.6265 19.9377 8.36898 19.9377 9.13898V20.1665H18.5627V9.14816C18.5627 8.79983 18.3977 8.46067 18.1227 8.24067L11.706 3.254C11.2935 2.93317 10.716 2.93317 10.2944 3.254L3.87768 8.24984C3.60268 8.46068 3.43768 8.79983 3.43768 9.14816L3.39185 20.1665Z" fill="white"/>
<path d="M15.5834 20.8543H6.41675C6.04091 20.8543 5.72925 20.5427 5.72925 20.1668V11.4585C5.72925 10.3218 6.65508 9.396 7.79175 9.396H14.2084C15.3451 9.396 16.2709 10.3218 16.2709 11.4585V20.1668C16.2709 20.5427 15.9592 20.8543 15.5834 20.8543ZM7.10425 19.4793H14.8959V11.4585C14.8959 11.0827 14.5842 10.771 14.2084 10.771H7.79175C7.41591 10.771 7.10425 11.0827 7.10425 11.4585V19.4793Z" fill="white"/>
<path d="M9.16675 16.9585C8.79091 16.9585 8.47925 16.6468 8.47925 16.271V14.896C8.47925 14.5202 8.79091 14.2085 9.16675 14.2085C9.54258 14.2085 9.85425 14.5202 9.85425 14.896V16.271C9.85425 16.6468 9.54258 16.9585 9.16675 16.9585Z" fill="white"/>
<path d="M12.375 7.5625H9.625C9.24917 7.5625 8.9375 7.25083 8.9375 6.875C8.9375 6.49917 9.24917 6.1875 9.625 6.1875H12.375C12.7508 6.1875 13.0625 6.49917 13.0625 6.875C13.0625 7.25083 12.7508 7.5625 12.375 7.5625Z" fill="white"/>
</svg>
