<svg width="26" height="26" viewBox="0 0 26 26" fill="none" xmlns="http://www.w3.org/2000/svg">
<path d="M12.3862 5.759L13 6.63357L13.6139 5.759C14.5921 4.36531 16.1598 3.53578 17.9741 3.53564C19.3938 3.53748 20.766 4.14114 21.7863 5.2326C22.8083 6.32587 23.3912 7.81831 23.3929 9.38472C23.3925 12.7791 21.0194 15.9587 18.4122 18.4012C15.8361 20.8144 13.201 22.3504 13.0075 22.46L13.0075 22.46L13.003 22.4626C13.0017 22.4633 13.0007 22.4638 13 22.464C12.9994 22.4638 12.9984 22.4633 12.997 22.4625L12.9926 22.46C12.7991 22.3504 10.164 20.8144 7.58792 18.4012C4.98059 15.9586 2.60736 12.7788 2.60718 9.38432C2.60893 7.81805 3.19181 6.32577 4.21377 5.2326C5.23411 4.14114 6.60629 3.53748 8.02601 3.53564C9.84029 3.53578 11.4079 4.36531 12.3862 5.759Z" stroke="#323232" stroke-width="1.5"/>
</svg>
