<svg width="60" height="61" viewBox="0 0 60 61" fill="none" xmlns="http://www.w3.org/2000/svg">
<circle cx="30" cy="30.5" r="29.5" fill="white" stroke="#DBDBDB"/>
<g clip-path="url(#clip0_262_3344)">
<path d="M35.0352 19.8115C32.8637 19.8115 30.9625 20.7822 29.7774 22.423C28.5923 20.7822 26.6911 19.8115 24.5196 19.8115C22.7911 19.8135 21.134 20.5282 19.9117 21.7988C18.6895 23.0694 18.0019 24.7921 18 26.5889C18 34.2409 28.9141 40.4345 29.3788 40.6903C29.5014 40.7588 29.6383 40.7947 29.7774 40.7947C29.9165 40.7947 30.0534 40.7588 30.1759 40.6903C30.6407 40.4345 41.5548 34.2409 41.5548 26.5889C41.5528 24.7921 40.8653 23.0694 39.6431 21.7988C38.4208 20.5282 36.7637 19.8135 35.0352 19.8115ZM29.7774 38.9195C27.8573 37.7564 19.6825 32.458 19.6825 26.5889C19.6842 25.2559 20.1943 23.9779 21.1011 23.0352C22.0079 22.0926 23.2372 21.5623 24.5196 21.5605C26.5649 21.5605 28.2821 22.693 28.9992 24.512C29.0626 24.6724 29.1704 24.8096 29.309 24.9061C29.4475 25.0027 29.6106 25.0542 29.7774 25.0542C29.9442 25.0542 30.1072 25.0027 30.2458 24.9061C30.3843 24.8096 30.4922 24.6724 30.5555 24.512C31.2727 22.6897 32.9899 21.5605 35.0352 21.5605C36.3175 21.5623 37.5469 22.0926 38.4537 23.0352C39.3605 23.9779 39.8706 25.2559 39.8723 26.5889C39.8723 32.4492 31.6954 37.7553 29.7774 38.9195Z" fill="#323232"/>
</g>
<defs>
<clipPath id="clip0_262_3344">
<rect width="23.5548" height="23.6061" fill="white" transform="translate(18 18.5)"/>
</clipPath>
</defs>
</svg>
