<svg width="28" height="28" viewBox="0 0 28 28" fill="none" xmlns="http://www.w3.org/2000/svg">
<path d="M27.3018 13.3091C26.8667 12.877 26.2804 12.6315 25.6672 12.6245C25.054 12.6175 24.4623 12.8497 24.0174 13.2717C23.5895 13.6628 23.05 14.136 22.4499 14.6629L22.4 14.7067V9.08247L23.512 9.84781C23.5898 9.90159 23.6821 9.9304 23.7766 9.93041C23.8051 9.93041 23.8335 9.92791 23.8616 9.92294C23.9218 9.91177 23.9793 9.88883 24.0307 9.85544C24.0821 9.82205 24.1264 9.77886 24.1612 9.72834L25.2205 8.18834C25.2906 8.08638 25.3174 7.96076 25.295 7.83906C25.2726 7.71736 25.2029 7.60952 25.101 7.53921L22.4 5.68047V3.2664C22.3996 2.89521 22.252 2.53933 21.9895 2.27686C21.727 2.01439 21.3711 1.86677 21 1.8664H20.0666C19.7214 1.8675 19.3888 1.99637 19.1329 2.22817C18.8771 2.45997 18.7161 2.77829 18.6811 3.12174L14.2646 0.0818677C14.1866 0.0285364 14.0944 0 14 0C13.9055 0 13.8133 0.0285364 13.7354 0.0818677L2.89935 7.53921C2.79757 7.60944 2.7278 7.71716 2.70531 7.83875C2.68283 7.96035 2.70948 8.08589 2.77941 8.18787L3.83875 9.72787C3.87346 9.7784 3.91778 9.82159 3.96919 9.85498C4.0206 9.88837 4.07808 9.9113 4.13835 9.92247C4.26029 9.94447 4.38599 9.91765 4.48835 9.84781L5.59995 9.08247V16.2589L4.03661 17.6939L3.45888 17.0639C3.37536 16.9727 3.25905 16.9183 3.1355 16.9128C3.01195 16.9073 2.89126 16.9511 2.79995 17.0345L0.214612 19.4051C0.16941 19.4465 0.132804 19.4964 0.106886 19.552C0.0809685 19.6075 0.0662457 19.6676 0.063559 19.7289C0.0608722 19.7901 0.070274 19.8512 0.0912275 19.9088C0.112181 19.9664 0.144276 20.0194 0.185679 20.0645L7.32102 27.8486C7.40488 27.9398 7.52154 27.994 7.64535 27.9993L7.66542 27.9998C7.78199 27.9997 7.89433 27.9561 7.98042 27.8775L10.5662 25.5068C10.6115 25.4654 10.6482 25.4155 10.6741 25.3599C10.7001 25.3043 10.7148 25.2442 10.7175 25.1829C10.7202 25.1216 10.7108 25.0604 10.6898 25.0027C10.6688 24.9451 10.6366 24.8922 10.5952 24.847L10.0193 24.2198L10.5051 23.7713L18.6554 24.1264C19.4658 24.159 20.2725 24.0002 21.0101 23.663C21.7477 23.3258 22.3955 22.8197 22.9012 22.1855L23.0911 21.9457C24.402 20.289 26.1972 18.0196 27.3247 16.5613C27.6864 16.1027 27.8991 15.5445 27.9342 14.9615C27.9497 14.6573 27.9015 14.3532 27.7926 14.0687C27.6837 13.7842 27.5165 13.5252 27.3018 13.3091ZM19.6 3.2664C19.6 3.14264 19.6491 3.02394 19.7366 2.93642C19.8242 2.8489 19.9429 2.79974 20.0666 2.79974H21C21.1237 2.79974 21.2424 2.8489 21.3299 2.93642C21.4175 3.02394 21.4666 3.14264 21.4666 3.2664V5.03834L19.6 3.7536V3.2664ZM4.34321 8.81461L3.81308 8.04367L14 1.03294L24.1873 8.04367L23.6567 8.81461L14.2646 2.34987C14.1866 2.29654 14.0944 2.268 14 2.268C13.9055 2.268 13.8133 2.29654 13.7354 2.34987L4.34321 8.81461ZM14 3.30094L21.4666 8.44034V15.5164L21.3052 15.6559C20.8805 16.0227 20.4418 16.4003 20.0046 16.7759C19.804 16.4577 19.5292 16.1929 19.2037 16.0043C18.8783 15.8157 18.5119 15.709 18.136 15.6933L8.10782 15.2593C7.56402 15.2342 7.02262 15.346 6.53328 15.5845V8.43987L14 3.30094ZM7.69388 26.8737L1.18995 19.778L3.08648 18.0383L9.59182 25.1335L7.69388 26.8737ZM26.586 15.9919C25.4627 17.4442 23.6693 19.7113 22.3594 21.3661L22.1704 21.6059C21.758 22.1261 21.2282 22.5412 20.6244 22.8172C20.0207 23.0931 19.3602 23.2221 18.697 23.1936L10.353 22.8295C10.2913 22.8266 10.2297 22.836 10.1717 22.8572C10.1138 22.8785 10.0607 22.9111 10.0156 22.9532L9.38928 23.5314L4.66755 18.3817L6.38722 16.8016C6.61321 16.5942 6.878 16.4336 7.16633 16.329C7.45466 16.2244 7.76083 16.1779 8.06722 16.1921L18.0954 16.6261C18.3919 16.6385 18.6767 16.7453 18.9082 16.9309C19.1398 17.1165 19.3059 17.3712 19.3825 17.6579L19.3853 17.6645C19.4426 17.8767 19.4491 18.0995 19.4041 18.3148C19.3591 18.53 19.264 18.7316 19.1265 18.9031C18.9889 19.0746 18.8128 19.2113 18.6125 19.3019C18.4122 19.3925 18.1933 19.4346 17.9736 19.4247L12.845 19.2026C12.7216 19.1985 12.6016 19.243 12.5107 19.3264C12.4198 19.4098 12.3652 19.5255 12.3587 19.6487C12.3534 19.7724 12.3974 19.8931 12.4811 19.9843C12.5647 20.0755 12.6812 20.1297 12.8048 20.135L17.933 20.3571C17.9676 20.3585 18.0016 20.3595 18.0357 20.3595C18.6371 20.3595 19.2152 20.1273 19.6494 19.7112C20.0836 19.2951 20.3402 18.7273 20.3658 18.1265C20.3703 17.9889 20.3625 17.8511 20.3424 17.7149C20.8698 17.2636 21.4013 16.8053 21.9146 16.3629L22.232 16.089C22.3762 15.9691 22.5152 15.8491 22.6473 15.7311L23.0659 15.3638C23.5969 14.9007 24.1239 14.4331 24.647 13.961C24.9143 13.7025 25.2718 13.5583 25.6437 13.5591C26.0156 13.5599 26.3725 13.7056 26.6387 13.9652C26.7633 14.0903 26.86 14.2404 26.9226 14.4055C26.9852 14.5706 27.0121 14.747 27.0018 14.9233C26.9747 15.3134 26.8295 15.6859 26.5855 15.9915L26.586 15.9919ZM12.6 9.33307C12.8768 9.33307 13.1475 9.25097 13.3778 9.09713C13.608 8.9433 13.7874 8.72465 13.8934 8.46883C13.9993 8.21301 14.0271 7.93152 13.9731 7.65995C13.919 7.38837 13.7857 7.13892 13.5899 6.94312C13.3941 6.74733 13.1447 6.61399 12.8731 6.55997C12.6015 6.50595 12.32 6.53368 12.0642 6.63964C11.8084 6.7456 11.5897 6.92505 11.4359 7.15527C11.2821 7.3855 11.2 7.65618 11.2 7.93307C11.2003 8.30426 11.3479 8.66014 11.6104 8.92261C11.8729 9.18508 12.2288 9.3327 12.6 9.33307ZM12.6 7.46641C12.6923 7.46641 12.7825 7.49378 12.8592 7.54505C12.936 7.59633 12.9958 7.66922 13.0311 7.75449C13.0664 7.83976 13.0757 7.93359 13.0577 8.02412C13.0396 8.11464 12.9952 8.19779 12.9299 8.26306C12.8647 8.32832 12.7815 8.37277 12.691 8.39077C12.6005 8.40878 12.5066 8.39954 12.4214 8.36422C12.3361 8.3289 12.2632 8.26908 12.2119 8.19234C12.1607 8.1156 12.1333 8.02537 12.1333 7.93307C12.1333 7.80931 12.1825 7.69061 12.27 7.60309C12.3575 7.51557 12.4762 7.46641 12.6 7.46641ZM14 12.5997C14 12.8766 14.0821 13.1473 14.2359 13.3775C14.3897 13.6078 14.6084 13.7872 14.8642 13.8932C15.12 13.9991 15.4015 14.0269 15.6731 13.9728C15.9447 13.9188 16.1941 13.7855 16.3899 13.5897C16.5857 13.3939 16.719 13.1444 16.7731 12.8729C16.8271 12.6013 16.7993 12.3198 16.6934 12.064C16.5874 11.8082 16.408 11.5895 16.1778 11.4357C15.9475 11.2818 15.6768 11.1997 15.4 11.1997C15.0288 11.2001 14.6729 11.3477 14.4104 11.6102C14.1479 11.8727 14.0003 12.2286 14 12.5997ZM15.8666 12.5997C15.8666 12.692 15.8393 12.7823 15.788 12.859C15.7367 12.9358 15.6638 12.9956 15.5785 13.0309C15.4933 13.0662 15.3994 13.0754 15.3089 13.0574C15.2184 13.0394 15.1352 12.995 15.07 12.9297C15.0047 12.8645 14.9603 12.7813 14.9423 12.6908C14.9242 12.6003 14.9335 12.5064 14.9688 12.4212C15.0041 12.3359 15.0639 12.263 15.1407 12.2117C15.2174 12.1604 15.3077 12.1331 15.4 12.1331C15.5237 12.1331 15.6424 12.1822 15.7299 12.2698C15.8175 12.3573 15.8666 12.476 15.8666 12.5997ZM11.7688 12.3081L15.5022 7.64141C15.5795 7.54474 15.6921 7.48277 15.8151 7.46912C15.9382 7.45546 16.0616 7.49125 16.1583 7.56861C16.255 7.64596 16.3169 7.75855 16.3306 7.8816C16.3442 8.00464 16.3084 8.12808 16.2311 8.22474L12.4978 12.8914C12.4595 12.9393 12.4121 12.9791 12.3584 13.0087C12.3047 13.0382 12.2457 13.0569 12.1848 13.0637C12.1238 13.0705 12.0622 13.0652 12.0033 13.0481C11.9444 13.031 11.8895 13.0025 11.8416 12.9642C11.7938 12.9259 11.7539 12.8786 11.7243 12.8249C11.6948 12.7711 11.6761 12.7121 11.6693 12.6512C11.6626 12.5903 11.6679 12.5286 11.6849 12.4698C11.702 12.4109 11.7305 12.3559 11.7688 12.3081Z" fill="#0E93D1"/>
</svg>
