<svg width="29" height="28" viewBox="0 0 29 28" fill="none" xmlns="http://www.w3.org/2000/svg">
<g clip-path="url(#clip0_529_139)">
<path d="M28.5171 14C28.5171 6.26801 22.1873 0 14.3791 0C6.57098 0 0.241211 6.26801 0.241211 14C0.241211 21.732 6.57098 28 14.3791 28C22.1873 28 28.5171 21.732 28.5171 14Z" fill="url(#paint0_linear_529_139)"/>
<path d="M25.0198 4.7891C22.9586 8.53594 20.0436 12.4007 16.4012 16.0075C12.7588 19.6144 8.85604 22.4954 5.07786 24.5365C4.84099 24.3326 4.61094 24.1202 4.38771 23.8991C3.03839 22.6076 1.96223 21.0629 1.222 19.3552C0.481762 17.6476 0.0922592 15.8111 0.0762012 13.9528C0.0601432 12.0945 0.417851 10.2517 1.12847 8.53173C1.83908 6.81177 2.88839 5.24912 4.21519 3.93489C5.542 2.62067 7.11975 1.58116 8.85645 0.877001C10.5932 0.172838 12.4541 -0.181895 14.3306 -0.166513C16.2072 -0.15113 18.0619 0.23406 19.7866 0.966597C21.5113 1.69913 23.0715 2.76436 24.3761 4.10016C24.5994 4.32121 24.8139 4.55086 25.0198 4.7891Z" fill="white" fill-opacity="0.0627451"/>
<path d="M17.7279 6.63086H11.031C9.94562 6.63086 8.90466 7.05783 8.13716 7.81785C7.36966 8.57786 6.93848 9.60867 6.93848 10.6835V17.3151C6.93848 18.3899 7.36966 19.4207 8.13716 20.1807C8.90466 20.9407 9.94562 21.3677 11.031 21.3677H17.7279C18.8134 21.3677 19.8543 20.9407 20.6218 20.1807C21.3893 19.4207 21.8205 18.3899 21.8205 17.3151V10.6835C21.8205 9.60867 21.3893 8.57786 20.6218 7.81785C19.8543 7.05783 18.8134 6.63086 17.7279 6.63086ZM20.5183 16.733C20.5183 17.6202 20.1624 18.4711 19.5289 19.0984C18.8953 19.7258 18.0361 20.0782 17.1401 20.0782H11.6189C10.7229 20.0782 9.86365 19.7258 9.23011 19.0984C8.59657 18.4711 8.24065 17.6202 8.24065 16.733V11.2656C8.24065 10.3784 8.59657 9.5275 9.23011 8.90014C9.86365 8.27278 10.7229 7.92033 11.6189 7.92033H17.1401C18.0361 7.92033 18.8953 8.27278 19.5289 8.90014C20.1624 9.5275 20.5183 10.3784 20.5183 11.2656V16.733Z" fill="white"/>
<path d="M17.0933 11.3395L17.058 11.3045L17.0282 11.275C16.3248 10.581 15.3722 10.1914 14.3792 10.1919C13.8777 10.1953 13.3819 10.2964 12.9199 10.4896C12.458 10.6828 12.039 10.9643 11.6869 11.3179C11.3349 11.6715 11.0566 12.0903 10.868 12.5504C10.6795 13.0106 10.5843 13.503 10.588 13.9995C10.5872 15.0072 10.9884 15.9745 11.7041 16.6908C12.0547 17.0422 12.4725 17.321 12.9331 17.5107C13.3937 17.7005 13.8878 17.7975 14.3866 17.7961C15.1349 17.7806 15.8624 17.5497 16.4805 17.1318C17.0986 16.7138 17.5804 16.1268 17.8674 15.4423C18.1543 14.7578 18.2339 14.0055 18.0965 13.2769C17.959 12.5484 17.6105 11.8752 17.0933 11.3395ZM14.3792 16.4974C13.8788 16.5044 13.3877 16.3638 12.9683 16.0936C12.5488 15.8233 12.22 15.4357 12.0237 14.9799C11.8273 14.5241 11.7723 14.0208 11.8656 13.534C11.9589 13.0472 12.1963 12.5988 12.5476 12.246C12.899 11.8931 13.3483 11.6517 13.8386 11.5525C14.3288 11.4532 14.8378 11.5006 15.3008 11.6886C15.7638 11.8766 16.1599 12.1967 16.4387 12.6082C16.7174 13.0197 16.8663 13.504 16.8663 13.9995C16.8688 14.3253 16.8064 14.6483 16.6827 14.9502C16.559 15.2521 16.3765 15.5269 16.1455 15.7588C15.9145 15.9908 15.6396 16.1754 15.3366 16.3022C15.0335 16.4289 14.7082 16.4952 14.3792 16.4974ZM19.2958 10.0169C19.2968 10.1351 19.2742 10.2523 19.2294 10.3619C19.1846 10.4714 19.1184 10.5712 19.0346 10.6554C18.9508 10.7395 18.851 10.8065 18.741 10.8525C18.631 10.8985 18.513 10.9225 18.3936 10.9232C18.2752 10.9232 18.1581 10.8998 18.0489 10.8546C17.9396 10.8094 17.8406 10.7432 17.7574 10.6598C17.6314 10.5332 17.5457 10.3727 17.5109 10.1983C17.4761 10.0239 17.4937 9.84319 17.5617 9.67863C17.6296 9.51407 17.7448 9.37287 17.8931 9.27255C18.0413 9.17223 18.216 9.11719 18.3955 9.11426C18.6056 9.11422 18.809 9.18724 18.9703 9.32057L18.9889 9.33899C19.0189 9.36318 19.0463 9.39034 19.0707 9.42005L19.0912 9.44215C19.2244 9.6046 19.2967 9.80766 19.2958 10.0169Z" fill="white"/>
</g>
<defs>
<linearGradient id="paint0_linear_529_139" x1="4.38214" y1="4.10053" x2="24.1801" y2="24.0936" gradientUnits="userSpaceOnUse">
<stop stop-color="#FAE100"/>
<stop offset="0.15" stop-color="#FCB720"/>
<stop offset="0.3" stop-color="#FF7950"/>
<stop offset="0.5" stop-color="#FF1C74"/>
<stop offset="1" stop-color="#6C1CD1"/>
</linearGradient>
<clipPath id="clip0_529_139">
<rect width="28.2759" height="28" fill="white" transform="translate(0.241211)"/>
</clipPath>
</defs>
</svg>
