<svg width="28" height="28" viewBox="0 0 28 28" fill="none" xmlns="http://www.w3.org/2000/svg">
<g clip-path="url(#clip0_507_4905)">
<path d="M13.1515 4.53917C12.9394 4.53917 12.7697 4.4119 12.7273 4.19978C12.3455 2.58766 13.6182 0.72099 13.703 0.636142C13.8727 0.42402 14.2545 0.42402 14.4242 0.636142C14.4242 0.72099 15.697 2.63008 15.3576 4.2422C15.3152 4.45432 15.0606 4.62402 14.8485 4.53917C14.6364 4.49675 14.4667 4.2422 14.5515 4.03008C14.7212 3.26644 14.3818 2.33311 14.0849 1.73917C13.7879 2.33311 13.4061 3.26644 13.6182 4.03008C13.6606 4.2422 13.5333 4.49675 13.3212 4.53917H13.1515Z" fill="#0E93D1"/>
<path d="M6.40603 5.59998C6.23633 5.59998 6.06664 5.51513 6.02421 5.34543C5.93936 5.13331 6.02421 4.87877 6.23633 4.79392C6.49088 4.70907 6.703 4.5818 6.95755 4.45452C9.16361 3.30907 11.5394 3.52119 12.7697 4.19998C12.9818 4.32725 13.0666 4.5818 12.9394 4.79392C12.8121 5.00604 12.5575 5.09089 12.3454 4.96361C11.2424 4.36967 9.16361 4.28483 7.29694 5.21816C7.0424 5.34543 6.74543 5.4727 6.49088 5.59998H6.40603ZM12.2606 7.29695H6.49088C6.23633 7.29695 6.06664 7.12725 6.06664 6.87271C6.06664 6.61816 6.23633 6.44846 6.49088 6.44846H12.2606C12.5151 6.44846 12.6848 6.61816 12.6848 6.87271C12.6848 7.12725 12.5151 7.29695 12.2606 7.29695ZM21.2121 12.2606C21.1697 12.2606 21.1272 12.2606 21.0424 12.2182C20.8303 12.1333 20.703 11.8788 20.7879 11.6666L22.4 7.50907C22.4848 7.29695 22.7394 7.16967 22.9515 7.25452C23.1636 7.33937 23.2909 7.59392 23.206 7.80604L21.6363 12.006C21.5515 12.1757 21.3818 12.2606 21.2121 12.2606Z" fill="#0E93D1"/>
<path d="M25.6666 12.8969C25.4969 12.8969 25.3696 12.812 25.2848 12.6423L23.1211 7.89083C23.0363 7.67871 23.1211 7.42416 23.3332 7.33931C23.5454 7.25447 23.7999 7.33931 23.8848 7.55144L26.0484 12.303C26.1332 12.5151 26.0484 12.7696 25.8363 12.8545C25.7514 12.8545 25.709 12.8969 25.6666 12.8969ZM22.0181 5.64235C21.9757 5.64235 21.9332 5.64235 21.8484 5.59992C21.5514 5.47265 21.212 5.34538 20.8726 5.17568C19.006 4.19992 16.9272 4.32719 15.8241 4.92113C15.612 5.04841 15.3575 4.96356 15.2302 4.75144C15.1029 4.53931 15.1878 4.28477 15.3999 4.1575C16.6726 3.47871 19.006 3.26659 21.212 4.41204C21.509 4.58174 21.806 4.70901 22.1029 4.83628C22.3151 4.92113 22.4423 5.17568 22.3575 5.3878C22.3575 5.5575 22.1878 5.64235 22.0181 5.64235ZM21.806 7.29689H15.9514C15.6969 7.29689 15.5272 7.12719 15.5272 6.87265C15.5272 6.6181 15.6969 6.44841 15.9514 6.44841H21.7635C22.0181 6.44841 22.1878 6.6181 22.1878 6.87265C22.1878 7.12719 22.0181 7.29689 21.806 7.29689Z" fill="#0E93D1"/>
<path d="M23.1636 8.14533C22.103 8.14533 21.2546 7.29685 21.2546 6.23624C21.2546 5.17563 22.103 4.32715 23.1636 4.32715C24.2243 4.32715 25.0727 5.17563 25.0727 6.23624C25.0727 7.29685 24.2243 8.14533 23.1636 8.14533ZM23.1636 5.17563C22.5697 5.17563 22.103 5.6423 22.103 6.23624C22.103 6.83018 22.5697 7.29685 23.1636 7.29685C23.7576 7.29685 24.2243 6.83018 24.2243 6.23624C24.2243 5.6423 23.7152 5.17563 23.1636 5.17563ZM7.3394 12.4726C7.16971 12.4726 7.00001 12.3878 6.95759 12.2181L5.13334 7.89079C5.0485 7.67866 5.13334 7.42412 5.34547 7.33927C5.55759 7.25442 5.81213 7.33927 5.89698 7.55139L7.72122 11.8787C7.80607 12.0908 7.72122 12.3453 7.5091 12.4302C7.42425 12.4726 7.38183 12.4726 7.3394 12.4726Z" fill="#0E93D1"/>
<path d="M2.92723 12.4724C2.8848 12.4724 2.79995 12.4724 2.75753 12.43C2.54541 12.3452 2.41814 12.0906 2.54541 11.8785L4.41207 7.5088C4.49692 7.29667 4.75147 7.21183 4.96359 7.29667C5.17571 7.38152 5.26056 7.63607 5.17571 7.84819L3.30904 12.2179C3.2242 12.3876 3.09692 12.4724 2.92723 12.4724Z" fill="#0E93D1"/>
<path d="M5.13333 8.14533C4.07273 8.14533 3.22424 7.29685 3.22424 6.23624C3.22424 5.17563 4.07273 4.32715 5.13333 4.32715C6.19394 4.32715 7.04243 5.17563 7.04243 6.23624C7.04243 7.29685 6.19394 8.14533 5.13333 8.14533ZM5.13333 5.17563C4.53939 5.17563 4.07273 5.6423 4.07273 6.23624C4.07273 6.83018 4.53939 7.29685 5.13333 7.29685C5.72727 7.29685 6.19394 6.83018 6.19394 6.23624C6.19394 5.6423 5.72727 5.17563 5.13333 5.17563ZM15.4 20.3635C15.1879 20.3635 14.9758 20.1938 14.9758 19.9393L14.4242 7.89079C14.4242 7.63624 14.5939 7.46654 14.8485 7.46654C15.0606 7.46654 15.2727 7.63624 15.2727 7.89079L15.8242 19.9393C15.8667 20.1514 15.6545 20.3211 15.4 20.3635C15.4424 20.3635 15.4424 20.3635 15.4 20.3635ZM12.7273 20.1514C12.4727 20.1514 12.303 19.9393 12.303 19.7271L12.8545 7.84836C12.8545 7.59382 13.0667 7.42412 13.2788 7.42412C13.5333 7.42412 13.703 7.63624 13.703 7.84836L13.1515 19.7271C13.1515 19.9817 12.9818 20.1514 12.7273 20.1514Z" fill="#0E93D1"/>
<path d="M16.4181 22.4421C16.1636 22.4421 15.9939 22.2724 15.9939 22.0178C15.9939 20.9572 15.1454 20.1087 14.0848 20.1087C13.0242 20.1087 12.1757 20.9572 12.1757 22.0178C12.1757 22.2724 12.006 22.4421 11.7515 22.4421C11.4969 22.4421 11.3272 22.2724 11.3272 22.0178C11.3272 20.4906 12.5575 19.2603 14.0848 19.2603C15.6121 19.2603 16.8424 20.4906 16.8424 22.0178C16.8424 22.2724 16.6727 22.4421 16.4181 22.4421ZM22.9939 27.533H5.17571C4.92116 27.533 4.75146 27.3633 4.75146 27.1087V25.9633C4.75146 25.03 5.5151 24.2239 6.49086 24.2239H21.6787C22.6121 24.2239 23.4181 24.9875 23.4181 25.9633V27.1087C23.4181 27.3633 23.206 27.533 22.9939 27.533ZM5.59995 26.6845H22.5272V25.9633C22.5272 25.4966 22.1454 25.0724 21.6363 25.0724H6.49086C6.02419 25.0724 5.59995 25.4542 5.59995 25.9633V26.6845Z" fill="#0E93D1"/>
<path d="M20.6606 25.1149H7.50904C7.2545 25.1149 7.0848 24.9452 7.0848 24.6907V23.5877C7.0848 22.6543 7.84844 21.8483 8.82419 21.8483H19.3878C20.3212 21.8483 21.1272 22.6119 21.1272 23.5877V24.6907C21.0848 24.9452 20.9151 25.1149 20.6606 25.1149ZM7.93329 24.2665H20.2787V23.5877C20.2787 23.121 19.8969 22.6968 19.3878 22.6968H8.78177C8.3151 22.6968 7.89086 23.0786 7.89086 23.5877V24.2665H7.93329ZM14.0848 8.44221C12.7272 8.44221 11.6242 7.33918 11.6242 5.9816C11.6242 4.62403 12.7272 3.521 14.0848 3.521C15.4424 3.521 16.5454 4.62403 16.5454 5.9816C16.5454 7.33918 15.4424 8.44221 14.0848 8.44221ZM14.0848 4.36948C13.1939 4.36948 12.4727 5.09069 12.4727 5.9816C12.4727 6.87251 13.1939 7.59372 14.0848 7.59372C14.9757 7.59372 15.6969 6.87251 15.6969 5.9816C15.6969 5.09069 14.9757 4.36948 14.0848 4.36948ZM1.14541 20.2786C1.01813 20.2786 0.933285 20.2361 0.848437 20.1513C0.763588 20.0665 0.721164 19.8968 0.721164 19.7695L1.06056 17.9877C0.636316 17.2665 0.424194 16.4604 0.424194 15.6543C0.424194 13.1089 2.50298 11.0301 5.04844 11.0301C7.59389 11.0301 9.67268 13.1089 9.67268 15.6543C9.67268 18.1998 7.59389 20.2786 5.04844 20.2786C4.41207 20.2786 3.81813 20.1513 3.22419 19.8968L1.23025 20.2786H1.14541ZM3.26662 19.0058C3.30904 19.0058 3.39389 19.0058 3.43632 19.0483C3.94541 19.2604 4.4545 19.3877 5.00601 19.3877C7.0848 19.3877 8.78177 17.6907 8.78177 15.6119C8.78177 13.5331 7.0848 11.8361 5.00601 11.8361C2.96965 11.8786 1.27268 13.5755 1.27268 15.6543C1.27268 16.3755 1.4848 17.0543 1.86662 17.6907C1.90904 17.7755 1.95147 17.9028 1.90904 17.9877L1.69692 19.3028L3.22419 19.0058H3.26662Z" fill="#0E93D1"/>
<path d="M5.04848 14.1697H3.18181C2.92727 14.1697 2.75757 14 2.75757 13.7454C2.75757 13.4909 2.92727 13.3212 3.18181 13.3212H5.00605C5.2606 13.3212 5.4303 13.4909 5.4303 13.7454C5.4303 14 5.2606 14.1697 5.04848 14.1697ZM6.87272 16.0788H3.18181C2.92727 16.0788 2.75757 15.9091 2.75757 15.6545C2.75757 15.4 2.92727 15.2303 3.18181 15.2303H6.87272C7.12727 15.2303 7.29696 15.4 7.29696 15.6545C7.29696 15.9091 7.08484 16.0788 6.87272 16.0788ZM6.87272 17.9879H3.18181C2.92727 17.9879 2.75757 17.8182 2.75757 17.5636C2.75757 17.3091 2.92727 17.1394 3.18181 17.1394H6.87272C7.12727 17.1394 7.29696 17.3091 7.29696 17.5636C7.29696 17.8182 7.08484 17.9879 6.87272 17.9879ZM19.0909 20.2788C18.9636 20.2788 18.8788 20.2363 18.7939 20.1515C18.7091 20.0666 18.6667 19.8969 18.6667 19.7697L19.0061 17.9879C18.5818 17.2666 18.3697 16.4606 18.3697 15.6545C18.3697 13.1091 20.4485 11.0303 22.9939 11.0303C25.5394 11.0303 27.5758 13.1091 27.5758 15.6545C27.5758 18.2 25.497 20.2788 22.9515 20.2788C22.3151 20.2788 21.7212 20.1515 21.1273 19.8969L19.1333 20.2788H19.0909ZM21.2121 19.006C21.2545 19.006 21.3394 19.006 21.3818 19.0485C21.8909 19.2606 22.4 19.3879 22.9515 19.3879C25.0303 19.3879 26.7273 17.6909 26.7273 15.6121C26.7273 13.5333 25.0303 11.8363 22.9515 11.8363C20.8727 11.8363 19.1758 13.5333 19.1758 15.6121C19.1758 16.3333 19.3879 17.0121 19.7697 17.6485C19.8121 17.7333 19.8545 17.8606 19.8121 17.9454L19.5576 19.2606L21.0848 18.9636C21.1697 19.006 21.1697 19.006 21.2121 19.006Z" fill="#0E93D1"/>
<path d="M22.9515 17.012C22.6969 17.012 22.5272 16.8423 22.5272 16.5877V16.3756C22.5272 15.8665 22.8242 15.4423 23.2909 15.2301C23.5879 15.1029 23.8 14.8059 23.8 14.4665C23.8 14.0423 23.4182 13.618 22.9515 13.618C22.4848 13.618 22.103 13.9998 22.103 14.4665C22.103 14.721 21.9333 14.8907 21.6788 14.8907C21.4242 14.8907 21.2545 14.721 21.2545 14.4665C21.2545 13.5332 22.0182 12.7695 22.9515 12.7695C23.8424 12.7695 24.6485 13.5332 24.6485 14.4665C24.6485 15.1453 24.2666 15.7392 23.6303 15.9938C23.4606 16.0786 23.3757 16.2059 23.3757 16.3756V16.5877C23.3757 16.8423 23.206 17.012 22.9515 17.012ZM22.9515 18.4968C22.6969 18.4968 22.5272 18.3271 22.5272 18.0726V17.6907C22.5272 17.4362 22.6969 17.2665 22.9515 17.2665C23.206 17.2665 23.3757 17.4362 23.3757 17.6907V18.0726C23.3757 18.3271 23.206 18.4968 22.9515 18.4968Z" fill="#0E93D1"/>
</g>
<defs>
<clipPath id="clip0_507_4905">
<rect width="28" height="28" fill="white"/>
</clipPath>
</defs>
</svg>
