<svg width="9" height="10" viewBox="0 0 9 10" fill="none" xmlns="http://www.w3.org/2000/svg">
<path d="M2.27033 0.551042C3.67488 -0.195721 5.4013 -0.182669 6.79268 0.585232C8.17037 1.36877 9.00769 2.76716 8.99995 4.27144C8.96783 5.76585 8.06997 7.17059 6.94766 8.25653C6.29989 8.88612 5.57525 9.44284 4.78854 9.91532C4.70752 9.95819 4.61877 9.98689 4.52667 10C4.43803 9.99655 4.3517 9.97258 4.27548 9.93026C3.07442 9.22033 2.02071 8.31414 1.16507 7.25527C0.449092 6.37139 0.0423222 5.30353 0 4.19672L0.00320543 4.0357C0.0616642 2.59097 0.91594 1.27113 2.27033 0.551042ZM5.08324 2.96163C4.51226 2.73955 3.85396 2.86021 3.4157 3.26726C2.97745 3.67432 2.8457 4.28749 3.08196 4.82046C3.31823 5.35343 3.8759 5.70108 4.4946 5.70109C4.89992 5.70375 5.28955 5.55519 5.57666 5.28852C5.86378 5.02184 6.02453 4.6592 6.0231 4.2814C6.02525 3.70473 5.65422 3.18371 5.08324 2.96163Z" fill="#0E93D1"/>
</svg>
