<svg width="29" height="28" viewBox="0 0 29 28" fill="none" xmlns="http://www.w3.org/2000/svg">
<g clip-path="url(#clip0_529_148)">
<path d="M14.6213 28C22.4295 28 28.7593 21.732 28.7593 14C28.7593 6.26801 22.4295 0 14.6213 0C6.81316 0 0.483398 6.26801 0.483398 14C0.483398 21.732 6.81316 28 14.6213 28Z" fill="#007AB9"/>
<path d="M23.0686 15.1259V20.8978H19.6893V15.5128C19.6893 14.1606 19.2014 13.2372 17.9778 13.2372C17.0441 13.2372 16.4894 13.8589 16.2444 14.4609C16.1554 14.676 16.1325 14.9747 16.1325 15.2764V20.8976H12.7529C12.7529 20.8976 12.7982 11.7771 12.7529 10.833H16.1327V12.2592C16.1259 12.2704 16.1164 12.2814 16.1103 12.2922H16.1327V12.2592C16.5819 11.5749 17.3828 10.5966 19.1784 10.5966C21.4018 10.5966 23.0686 12.0351 23.0686 15.1259ZM9.21752 5.98145C8.06149 5.98145 7.30518 6.73288 7.30518 7.72015C7.30518 8.68646 8.03957 9.45961 9.17316 9.45961H9.19509C10.3738 9.45961 11.1067 8.68646 11.1067 7.72015C11.0842 6.73288 10.3738 5.98145 9.21752 5.98145ZM7.50604 20.8978H10.8844V10.833H7.50604V20.8978Z" fill="#F1F2F2"/>
</g>
<defs>
<clipPath id="clip0_529_148">
<rect width="28.2759" height="28" fill="white" transform="translate(0.48291)"/>
</clipPath>
</defs>
</svg>
