<svg width="21" height="21" viewBox="0 0 21 21" fill="none" xmlns="http://www.w3.org/2000/svg">
<path d="M7.61125 3H5.11125C4.66922 3 4.2453 3.17559 3.93274 3.48816C3.62017 3.80072 3.44458 4.22464 3.44458 4.66667V7.16667M18.4446 7.16667V4.66667C18.4446 4.22464 18.269 3.80072 17.9564 3.48816C17.6439 3.17559 17.2199 3 16.7779 3H14.2779M14.2779 18H16.7779C17.2199 18 17.6439 17.8244 17.9564 17.5118C18.269 17.1993 18.4446 16.7754 18.4446 16.3333V13.8333M3.44458 13.8333V16.3333C3.44458 16.7754 3.62017 17.1993 3.93274 17.5118C4.2453 17.8244 4.66922 18 5.11125 18H7.61125" stroke="#838383" stroke-width="1.28889" stroke-linecap="round" stroke-linejoin="round"/>
</svg>
