<svg width="24" height="24" viewBox="0 0 24 24" fill="none" xmlns="http://www.w3.org/2000/svg">
<path d="M4 11V15.1651C4 19.3302 5.60267 21 9.60045 21H14.3996C18.3973 21 20 19.3302 20 15.1651V11" stroke="#323232" stroke-width="1.5" stroke-linecap="round" stroke-linejoin="round"/>
<path d="M12 12C13.8202 12 15.163 10.659 14.984 9.012L14.3275 3H9.68244L9.01602 9.012C8.83698 10.659 10.1798 12 12 12Z" stroke="#323232" stroke-width="1.5" stroke-linecap="round" stroke-linejoin="round"/>
<path d="M17.8305 12C19.76 12 21.1738 10.524 20.9827 8.715L20.7152 6.24C20.3714 3.9 19.4161 3 16.9134 3H14L14.6687 9.309C14.831 10.794 16.2543 12 17.8305 12Z" stroke="#323232" stroke-width="1.5" stroke-linecap="round" stroke-linejoin="round"/>
<path d="M6.17387 12C7.75215 12 9.17738 10.794 9.33043 9.309L9.54086 7.32L10 3H7.08258C4.57647 3 3.61993 3.9 3.27558 6.24L3.01732 8.715C2.82601 10.524 4.24168 12 6.17387 12Z" stroke="#323232" stroke-width="1.5" stroke-linecap="round" stroke-linejoin="round"/>
<path d="M12 17C10.664 17 10 17.664 10 19V21H14V19C14 17.664 13.336 17 12 17Z" stroke="#323232" stroke-width="1.5" stroke-linecap="round" stroke-linejoin="round"/>
</svg>
