<svg width="8" height="11" viewBox="0 0 8 11" fill="none" xmlns="http://www.w3.org/2000/svg">
<path d="M5.7907 2.93091V3.15345H7.47943V4.01745H5.72525C5.6467 4.61964 5.47216 5.09091 5.20161 5.43127C4.9398 5.77164 4.5558 6.016 4.04961 6.16436C3.55216 6.31273 2.88889 6.38691 2.0598 6.38691V7.42109C2.0598 8.59927 2.5747 9.18836 3.60452 9.18836C4.61689 9.18836 5.12307 8.62109 5.12307 7.48655H6.2227C6.21398 8.35927 5.9827 9.01818 5.52889 9.46327C5.07507 9.90836 4.42925 10.1309 3.59143 10.1309C2.72743 10.1309 2.06852 9.89091 1.6147 9.41091C1.16961 8.93091 0.947068 8.25891 0.947068 7.39491V5.54909C1.94198 5.54909 2.67507 5.51855 3.14634 5.45745C3.62634 5.38764 3.97543 5.248 4.19361 5.03855C4.4118 4.82036 4.55143 4.48 4.61252 4.01745H0.357977V3.15345H4.66489V2.91782V1.73964H0.357977V0.862545H7.47943V1.73964H5.7907V2.93091Z" fill="#0E93D1"/>
</svg>
