<svg width="30" height="30" viewBox="0 0 30 30" fill="none" xmlns="http://www.w3.org/2000/svg">
<path d="M26.2004 18.3593V11.6395C26.2004 9.72875 26.2002 6.58489 26.2001 4.91841C26.2001 4.29997 25.7008 3.80043 25.0824 3.80035C23.4553 3.80015 20.4058 3.7998 18.3607 3.7998H11.6409C9.47949 3.7998 6.51141 3.80006 4.9188 3.80022C4.30027 3.80028 3.80082 4.3006 3.80086 4.91912C3.80098 6.62091 3.80119 9.85056 3.80119 11.6395V18.3593C3.80119 20.1483 3.80119 23.3783 3.80119 25.0802C3.80119 25.6988 4.30071 26.1991 4.91924 26.1991C6.51177 26.1991 9.47955 26.1991 11.6409 26.1991H18.3607C20.5221 26.1991 23.4896 26.1991 25.082 26.1991C25.7006 26.1991 26.2001 25.6988 26.2001 25.0803C26.2002 23.3784 26.2004 20.1483 26.2004 18.3593Z" stroke="#0E93D1" stroke-width="0.89597" stroke-linecap="round" stroke-linejoin="round"/>
<path d="M4.38086 9.52393H25.6153" stroke="#0E93D1" stroke-width="0.89597" stroke-linecap="round" stroke-linejoin="round"/>
<path d="M11.0986 3.92285V9.36587" stroke="#0E93D1" stroke-width="0.89597" stroke-linecap="round" stroke-linejoin="round"/>
<path d="M18.9014 3.92285V8.86188" stroke="#0E93D1" stroke-width="0.89597" stroke-linecap="round" stroke-linejoin="round"/>
<path d="M17.5785 17.2176C18.0265 17.4763 18.0265 18.1229 17.5785 18.3815L13.3786 20.8063C12.9306 21.065 12.3707 20.7417 12.3707 20.2244L12.3707 15.3748C12.3707 14.8575 12.9306 14.5342 13.3786 14.7929L17.5785 17.2176Z" stroke="#0E93D1" stroke-width="0.89597"/>
</svg>
