<svg width="22" height="22" viewBox="0 0 22 22" fill="none" xmlns="http://www.w3.org/2000/svg">
    <g clip-path="url(#clip0_420_117)">
        <path
            d="M21 21.75H1C0.59 21.75 0.25 21.41 0.25 21C0.25 20.59 0.59 20.25 1 20.25H21C21.41 20.25 21.75 20.59 21.75 21C21.75 21.41 21.41 21.75 21 21.75Z"
            fill="#FFFFFF" />
        <path
            d="M2.01001 21.7603C1.81001 21.7603 1.61998 21.6803 1.47998 21.5403C1.33998 21.4003 1.26001 21.2103 1.26001 21.0103L1.25 6.07029C1.25 5.16029 1.70997 4.30026 2.46997 3.79026L6.46997 1.12027C7.39997 0.500273 8.60002 0.500273 9.52002 1.12027L13.52 3.79026C14.29 4.30026 14.74 5.15029 14.74 6.07029L14.75 20.9903C14.75 21.4003 14.42 21.7403 14 21.7403L2.01001 21.7603ZM8 2.1503C7.76 2.1503 7.52 2.22026 7.31 2.36026L3.31 5.03031C2.96 5.26031 2.75 5.65029 2.75 6.07029L2.76001 20.2603L13.26 20.2403L13.25 6.07029C13.25 5.65029 13.04 5.26026 12.7 5.04026L8.70001 2.37027C8.49001 2.22027 8.24 2.1503 8 2.1503Z"
            fill="#FFFFFF" />
        <path
            d="M18.98 21.76C18.57 21.76 18.23 21.42 18.23 21.01V17C18.23 16.59 18.57 16.25 18.98 16.25C19.39 16.25 19.73 16.59 19.73 17V21.01C19.73 21.42 19.4 21.76 18.98 21.76Z"
            fill="#FFFFFF" />
        <path
            d="M19 17.75C17.48 17.75 16.25 16.52 16.25 15V13C16.25 11.48 17.48 10.25 19 10.25C20.52 10.25 21.75 11.48 21.75 13V15C21.75 16.52 20.52 17.75 19 17.75ZM19 11.75C18.31 11.75 17.75 12.31 17.75 13V15C17.75 15.69 18.31 16.25 19 16.25C19.69 16.25 20.25 15.69 20.25 15V13C20.25 12.31 19.69 11.75 19 11.75Z"
            fill="#FFFFFF" />
        <path
            d="M14 13.75H2C1.59 13.75 1.25 13.41 1.25 13C1.25 12.59 1.59 12.25 2 12.25H14C14.41 12.25 14.75 12.59 14.75 13C14.75 13.41 14.41 13.75 14 13.75Z"
            fill="#FFFFFF" />
        <path
            d="M8 21.75C7.59 21.75 7.25 21.41 7.25 21V17.25C7.25 16.84 7.59 16.5 8 16.5C8.41 16.5 8.75 16.84 8.75 17.25V21C8.75 21.41 8.41 21.75 8 21.75Z"
            fill="#FFFFFF" />
        <path
            d="M8 10.25C6.76 10.25 5.75 9.24 5.75 8C5.75 6.76 6.76 5.75 8 5.75C9.24 5.75 10.25 6.76 10.25 8C10.25 9.24 9.24 10.25 8 10.25ZM8 7.25C7.59 7.25 7.25 7.59 7.25 8C7.25 8.41 7.59 8.75 8 8.75C8.41 8.75 8.75 8.41 8.75 8C8.75 7.59 8.41 7.25 8 7.25Z"
            fill="#FFFFFF" />
    </g>
    <defs>
        <clipPath id="clip0_420_117">
            <rect width="22" height="22" fill="white" />
        </clipPath>
    </defs>
</svg>
