<svg width="26" height="30" viewBox="0 0 26 30" fill="none" xmlns="http://www.w3.org/2000/svg">
<path d="M14.875 5.225C14.7092 5.225 14.5503 5.15915 14.4331 5.04194C14.3158 4.92473 14.25 4.76576 14.25 4.6V2.5C14.25 1.81125 13.6888 1.25 13 1.25C12.3113 1.25 11.75 1.81125 11.75 2.5V4.6C11.75 4.76576 11.6842 4.92473 11.5669 5.04194C11.4497 5.15915 11.2908 5.225 11.125 5.225C10.9592 5.225 10.8003 5.15915 10.6831 5.04194C10.5658 4.92473 10.5 4.76576 10.5 4.6V2.5C10.5 1.12125 11.6213 0 13 0C14.3788 0 15.5 1.12125 15.5 2.5V4.6C15.5 4.76576 15.4342 4.92473 15.3169 5.04194C15.1997 5.15915 15.0408 5.225 14.875 5.225ZM13 30C10.5875 30 8.625 28.0375 8.625 25.625C8.625 25.4592 8.69085 25.3003 8.80806 25.1831C8.92527 25.0658 9.08424 25 9.25 25C9.41576 25 9.57473 25.0658 9.69194 25.1831C9.80915 25.3003 9.875 25.4592 9.875 25.625C9.875 27.3475 11.2775 28.75 13 28.75C14.7225 28.75 16.125 27.3475 16.125 25.625C16.125 25.4592 16.1908 25.3003 16.3081 25.1831C16.4253 25.0658 16.5842 25 16.75 25C16.9158 25 17.0747 25.0658 17.1919 25.1831C17.3092 25.3003 17.375 25.4592 17.375 25.625C17.375 28.0375 15.4125 30 13 30Z" fill="#0E93D1"/>
<path d="M23.6248 26.25H2.37481C1.99215 26.2487 1.61903 26.1304 1.30544 25.9111C0.991849 25.6918 0.752753 25.3819 0.62018 25.023C0.487607 24.664 0.467888 24.2731 0.563662 23.9026C0.659436 23.5321 0.866132 23.1997 1.15606 22.95C2.12566 22.1338 2.90499 21.1154 3.43942 19.9663C3.97385 18.8171 4.25045 17.5649 4.24981 16.2975V12.5C4.24981 7.675 8.17481 3.75 12.9998 3.75C17.8248 3.75 21.7498 7.675 21.7498 12.5V16.2975C21.7498 18.8638 22.8736 21.285 24.8336 22.9412C25.1269 23.1893 25.3369 23.5215 25.4354 23.8928C25.5339 24.2641 25.516 24.6567 25.3842 25.0176C25.2524 25.3784 25.013 25.6901 24.6983 25.9105C24.3837 26.1309 24.009 26.2494 23.6248 26.25ZM12.9998 5C8.86356 5 5.49981 8.36375 5.49981 12.5V16.2975C5.50119 17.7445 5.18631 19.1744 4.5772 20.4869C3.9681 21.7995 3.07948 22.9631 1.97356 23.8963C1.87535 23.9787 1.80486 24.0893 1.77166 24.2131C1.73846 24.337 1.74414 24.468 1.78795 24.5885C1.83175 24.709 1.91156 24.8131 2.01654 24.8868C2.12152 24.9604 2.2466 24.9999 2.37481 25H23.6248C23.7526 25 23.8773 24.9609 23.9821 24.8878C24.087 24.8148 24.1669 24.7114 24.2112 24.5915C24.2554 24.4717 24.2619 24.3411 24.2297 24.2175C24.1975 24.0938 24.1282 23.983 24.0311 23.9C22.9241 22.9666 22.0346 21.8025 21.4246 20.4893C20.8146 19.1761 20.499 17.7455 20.4998 16.2975V12.5C20.4998 8.36375 17.1361 5 12.9998 5Z" fill="#0E93D1"/>
</svg>
