<svg width="15" height="16" viewBox="0 0 15 16" fill="none" xmlns="http://www.w3.org/2000/svg">
<path d="M10.625 13.7812H4.375C2.09375 13.7812 0.78125 12.4688 0.78125 10.1875V5.8125C0.78125 3.53125 2.09375 2.21875 4.375 2.21875H10.625C12.9062 2.21875 14.2188 3.53125 14.2188 5.8125V10.1875C14.2188 12.4688 12.9062 13.7812 10.625 13.7812ZM4.375 3.15625C2.5875 3.15625 1.71875 4.025 1.71875 5.8125V10.1875C1.71875 11.975 2.5875 12.8438 4.375 12.8438H10.625C12.4125 12.8438 13.2812 11.975 13.2812 10.1875V5.8125C13.2812 4.025 12.4125 3.15625 10.625 3.15625H4.375Z" fill="#8C8C8C"/>
<path d="M3.75 10.9688C3.49375 10.9688 3.28125 10.7562 3.28125 10.5V5.5C3.28125 5.24375 3.49375 5.03125 3.75 5.03125C4.00625 5.03125 4.21875 5.24375 4.21875 5.5V10.5C4.21875 10.7562 4.00625 10.9688 3.75 10.9688Z" fill="#8C8C8C"/>
<path d="M5.625 8.46875C5.36875 8.46875 5.15625 8.25625 5.15625 8V5.5C5.15625 5.24375 5.36875 5.03125 5.625 5.03125C5.88125 5.03125 6.09375 5.24375 6.09375 5.5V8C6.09375 8.25625 5.88125 8.46875 5.625 8.46875Z" fill="#8C8C8C"/>
<path d="M5.625 10.9688C5.36875 10.9688 5.15625 10.7563 5.15625 10.5V9.875C5.15625 9.61875 5.36875 9.40625 5.625 9.40625C5.88125 9.40625 6.09375 9.61875 6.09375 9.875V10.5C6.09375 10.7563 5.88125 10.9688 5.625 10.9688Z" fill="#8C8C8C"/>
<path d="M9.375 6.59375C9.11875 6.59375 8.90625 6.38125 8.90625 6.125V5.5C8.90625 5.24375 9.11875 5.03125 9.375 5.03125C9.63125 5.03125 9.84375 5.24375 9.84375 5.5V6.125C9.84375 6.38125 9.63125 6.59375 9.375 6.59375Z" fill="#8C8C8C"/>
<path d="M7.5 10.9688C7.24375 10.9688 7.03125 10.7562 7.03125 10.5V5.5C7.03125 5.24375 7.24375 5.03125 7.5 5.03125C7.75625 5.03125 7.96875 5.24375 7.96875 5.5V10.5C7.96875 10.7562 7.75625 10.9688 7.5 10.9688Z" fill="#8C8C8C"/>
<path d="M9.375 10.9688C9.11875 10.9688 8.90625 10.7562 8.90625 10.5V8C8.90625 7.74375 9.11875 7.53125 9.375 7.53125C9.63125 7.53125 9.84375 7.74375 9.84375 8V10.5C9.84375 10.7562 9.63125 10.9688 9.375 10.9688Z" fill="#8C8C8C"/>
<path d="M11.25 10.9688C10.9938 10.9688 10.7812 10.7562 10.7812 10.5V5.5C10.7812 5.24375 10.9938 5.03125 11.25 5.03125C11.5063 5.03125 11.7188 5.24375 11.7188 5.5V10.5C11.7188 10.7562 11.5063 10.9688 11.25 10.9688Z" fill="#8C8C8C"/>
</svg>
