<svg width="46" height="46" viewBox="0 0 46 46" fill="none" xmlns="http://www.w3.org/2000/svg">
<circle cx="23" cy="23" r="23" fill="white"/>
<path fill-rule="evenodd" clip-rule="evenodd" d="M27.5 13.25C25.7051 13.25 24.25 14.7051 24.25 16.5C24.25 16.6959 24.2673 16.8878 24.3006 17.0741L19.5699 20.3856C19.5459 20.4024 19.5231 20.4204 19.5017 20.4394C18.9499 20.0075 18.255 19.75 17.5 19.75C15.7051 19.75 14.25 21.2051 14.25 23C14.25 24.7949 15.7051 26.25 17.5 26.25C18.255 26.25 18.9499 25.9925 19.5017 25.5606C19.5231 25.5796 19.5459 25.5976 19.5699 25.6144L24.3006 28.9259C24.2673 29.1122 24.25 29.3041 24.25 29.5C24.25 31.2949 25.7051 32.75 27.5 32.75C29.2949 32.75 30.75 31.2949 30.75 29.5C30.75 27.7051 29.2949 26.25 27.5 26.25C26.4472 26.25 25.5113 26.7506 24.9174 27.5267L20.4381 24.3911C20.6381 23.9694 20.75 23.4978 20.75 23C20.75 22.5022 20.6381 22.0306 20.4381 21.6089L24.9174 18.4733C25.5113 19.2494 26.4472 19.75 27.5 19.75C29.2949 19.75 30.75 18.2949 30.75 16.5C30.75 14.7051 29.2949 13.25 27.5 13.25ZM25.75 16.5C25.75 15.5335 26.5335 14.75 27.5 14.75C28.4665 14.75 29.25 15.5335 29.25 16.5C29.25 17.4665 28.4665 18.25 27.5 18.25C26.5335 18.25 25.75 17.4665 25.75 16.5ZM17.5 21.25C16.5335 21.25 15.75 22.0335 15.75 23C15.75 23.9665 16.5335 24.75 17.5 24.75C18.4665 24.75 19.25 23.9665 19.25 23C19.25 22.0335 18.4665 21.25 17.5 21.25ZM27.5 27.75C26.5335 27.75 25.75 28.5335 25.75 29.5C25.75 30.4665 26.5335 31.25 27.5 31.25C28.4665 31.25 29.25 30.4665 29.25 29.5C29.25 28.5335 28.4665 27.75 27.5 27.75Z" fill="#1C274C"/>
</svg>
