<svg width="29" height="28" viewBox="0 0 29 28" fill="none" xmlns="http://www.w3.org/2000/svg">
<g clip-path="url(#clip0_529_152)">
<path d="M14.8616 0C7.05367 0 0.723633 6.26828 0.723633 14C0.723633 21.7317 7.05367 28 14.8616 28C22.6694 28 28.9995 21.7317 28.9995 14C28.9995 6.26828 22.6694 0 14.8616 0Z" fill="black"/>
<path d="M16.4084 12.7323L22.4607 5.76562H21.0265L15.7713 11.8147L11.574 5.76562H6.73291L13.08 14.9128L6.73291 22.2184H8.16719L13.7168 15.8304L18.1495 22.2184H22.9906L16.408 12.7323H16.4084ZM8.68397 6.83481H10.8869L21.0271 21.1979H18.8242L8.68397 6.83481Z" fill="white"/>
</g>
<defs>
<clipPath id="clip0_529_152">
<rect width="28.2759" height="28" fill="white" transform="translate(0.724121)"/>
</clipPath>
</defs>
</svg>
