<svg width="26" height="30" viewBox="0 0 26 30" fill="none" xmlns="http://www.w3.org/2000/svg">
<path d="M22.5801 29.999H3.41406C1.53906 29.9931 0.0214844 28.4755 0.015625 26.6005V25.1005C0.015625 21.4326 1.55664 17.9345 4.26953 15.4677C5.40039 14.4423 7.08203 14.3017 8.36523 15.1279C9.70703 15.9892 11.3066 16.4462 13 16.4462C14.6934 16.4462 16.293 15.9892 17.6348 15.1279C18.918 14.3017 20.5996 14.4423 21.7305 15.4677C24.4434 17.9345 25.9902 21.4326 25.9844 25.1005V26.6005C25.9785 28.4814 24.4551 29.999 22.5801 29.999ZM6.53711 15.7607C5.98633 15.7607 5.45898 15.9658 5.05469 16.3349C2.58789 18.579 1.18164 21.7665 1.18164 25.1005V26.6005C1.1875 27.831 2.17773 28.8212 3.4082 28.8271H22.5742C23.8047 28.8271 24.8008 27.831 24.8008 26.6005V25.1005C24.8008 21.7665 23.3945 18.5849 20.9277 16.3349C20.1895 15.6669 19.0938 15.5732 18.2559 16.1123C16.7266 17.0966 14.9043 17.6181 12.9883 17.6181C11.0723 17.6181 9.25 17.0966 7.7207 16.1123C7.375 15.8837 6.95898 15.7607 6.53711 15.7607Z" fill="#222222"/>
<path d="M13 15.1172C8.82813 15.1113 5.44727 11.7305 5.44141 7.55859C5.44141 3.39258 8.82813 0 13 0C17.1719 0.00585938 20.5527 3.38672 20.5586 7.55859C20.5527 11.7246 17.166 15.1172 13 15.1172ZM13 1.17773C9.47266 1.17773 6.61328 4.03711 6.61328 7.56445C6.61328 11.0918 9.47266 13.9512 13 13.9512C16.5273 13.9512 19.3867 11.0918 19.3867 7.56445C19.3809 4.03711 16.5273 1.17773 13 1.17773Z" fill="#222222"/>
</svg>
