<svg width="22" height="22" viewBox="0 0 22 22" fill="none" xmlns="http://www.w3.org/2000/svg">
    <path
        d="M21.0834 20.854H0.916687C0.540854 20.854 0.229187 20.5423 0.229187 20.1665C0.229187 19.7907 0.540854 19.479 0.916687 19.479H21.0834C21.4592 19.479 21.7709 19.7907 21.7709 20.1665C21.7709 20.5423 21.4592 20.854 21.0834 20.854Z"
        fill="#A2A2A2" />
    <path
        d="M18.1319 20.8633C17.7561 20.8633 17.4444 20.5516 17.4444 20.1758V16.0874C17.4444 15.7116 17.7561 15.3999 18.1319 15.3999C18.5077 15.3999 18.8194 15.7116 18.8194 16.0874V20.1758C18.8194 20.5516 18.5169 20.8633 18.1319 20.8633Z"
        fill="#A2A2A2" />
    <path
        d="M18.1501 16.7748C16.6559 16.7748 15.4459 15.5648 15.4459 14.0706V11.9898C15.4459 10.4957 16.6559 9.28564 18.1501 9.28564C19.6443 9.28564 20.8543 10.4957 20.8543 11.9898V14.0706C20.8543 15.5648 19.6443 16.7748 18.1501 16.7748ZM18.1501 10.6698C17.4168 10.6698 16.8209 11.2657 16.8209 11.999V14.0798C16.8209 14.8131 17.4168 15.409 18.1501 15.409C18.8834 15.409 19.4793 14.8131 19.4793 14.0798V11.999C19.4793 11.2657 18.8834 10.6698 18.1501 10.6698Z"
        fill="#A2A2A2" />
    <path
        d="M13.1082 20.8543C12.7323 20.8543 12.4207 20.5426 12.4207 20.1668V5.52763C12.4207 4.07013 11.8065 3.44678 10.3765 3.44678H4.66571C3.22654 3.44678 2.60321 4.07013 2.60321 5.52763V20.1668C2.60321 20.5426 2.29154 20.8543 1.91571 20.8543C1.53988 20.8543 1.22821 20.5426 1.22821 20.1668V5.52763C1.22821 3.30013 2.44738 2.07178 4.66571 2.07178H10.3765C12.5857 2.07178 13.7957 3.30013 13.7957 5.52763V20.1668C13.7957 20.5426 13.484 20.8543 13.1082 20.8543Z"
        fill="#A2A2A2" />
    <path
        d="M9.85398 8.25H5.31647C4.94063 8.25 4.62897 7.93833 4.62897 7.5625C4.62897 7.18667 4.94063 6.875 5.31647 6.875H9.85398C10.2298 6.875 10.5415 7.18667 10.5415 7.5625C10.5415 7.93833 10.2298 8.25 9.85398 8.25Z"
        fill="#A2A2A2" />
    <path
        d="M9.85398 11.6875H5.31647C4.94063 11.6875 4.62897 11.3758 4.62897 11C4.62897 10.6242 4.94063 10.3125 5.31647 10.3125H9.85398C10.2298 10.3125 10.5415 10.6242 10.5415 11C10.5415 11.3758 10.2298 11.6875 9.85398 11.6875Z"
        fill="#A2A2A2" />
    <path
        d="M7.5625 20.854C7.18667 20.854 6.875 20.5423 6.875 20.1665V16.729C6.875 16.3532 7.18667 16.0415 7.5625 16.0415C7.93833 16.0415 8.25 16.3532 8.25 16.729V20.1665C8.25 20.5423 7.93833 20.854 7.5625 20.854Z"
        fill="#A2A2A2" />
</svg>
