<svg width="30" height="30" viewBox="0 0 30 30" fill="none" xmlns="http://www.w3.org/2000/svg">
<path d="M26.1999 18.3593V11.6395C26.1999 9.72875 26.1997 6.58489 26.1996 4.91841C26.1996 4.29997 25.7004 3.80043 25.0819 3.80035C23.4548 3.80015 20.4053 3.7998 18.3602 3.7998H11.6404C9.479 3.7998 6.51092 3.80006 4.91831 3.80022C4.29979 3.80028 3.80033 4.3006 3.80037 4.91912C3.80049 6.62091 3.8007 9.85056 3.8007 11.6395V18.3593C3.8007 20.1483 3.8007 23.3783 3.8007 25.0802C3.8007 25.6988 4.30022 26.1991 4.91876 26.1991C6.51128 26.1991 9.47906 26.1991 11.6404 26.1991H18.3602C20.5216 26.1991 23.4892 26.1991 25.0816 26.1991C25.7001 26.1991 26.1996 25.6988 26.1996 25.0803C26.1997 23.3784 26.1999 20.1483 26.1999 18.3593Z" stroke="#222222" stroke-width="0.89597" stroke-linecap="round" stroke-linejoin="round"/>
<path d="M4.38086 9.52344H25.6153" stroke="#222222" stroke-width="0.89597" stroke-linecap="round" stroke-linejoin="round"/>
<path d="M11.0986 3.92285V9.36587" stroke="#222222" stroke-width="0.89597" stroke-linecap="round" stroke-linejoin="round"/>
<path d="M18.9014 3.92285V8.86188" stroke="#222222" stroke-width="0.89597" stroke-linecap="round" stroke-linejoin="round"/>
<path d="M17.578 17.2176C18.026 17.4763 18.026 18.1229 17.578 18.3815L13.3781 20.8063C12.9302 21.065 12.3702 20.7417 12.3702 20.2244L12.3702 15.3748C12.3702 14.8575 12.9302 14.5342 13.3781 14.7929L17.578 17.2176Z" stroke="#222222" stroke-width="0.89597"/>
</svg>
