<svg width="22" height="22" viewBox="0 0 22 22" fill="none" xmlns="http://www.w3.org/2000/svg">
<g clip-path="url(#clip0_885_3481)">
<path d="M14.6668 14.6667L11.0002 11L7.3335 14.6667" stroke="white" stroke-width="1.84387" stroke-linecap="round" stroke-linejoin="round"/>
<path d="M11 11V19.25" stroke="white" stroke-width="1.84387" stroke-linecap="round" stroke-linejoin="round"/>
<path d="M18.6907 16.8572C19.5847 16.3698 20.291 15.5985 20.6981 14.6651C21.1051 13.7317 21.1897 12.6893 20.9385 11.7025C20.6874 10.7157 20.1147 9.84059 19.311 9.21536C18.5072 8.59013 17.5181 8.25037 16.4998 8.2497H15.3448C15.0674 7.17651 14.5502 6.18017 13.8323 5.33561C13.1143 4.49105 12.2143 3.82023 11.1998 3.37359C10.1852 2.92695 9.08268 2.71611 7.97495 2.75693C6.86722 2.79774 5.78315 3.08914 4.80425 3.60923C3.82535 4.12931 2.97709 4.86454 2.32324 5.75965C1.6694 6.65476 1.22697 7.68644 1.02924 8.77715C0.831505 9.86785 0.883605 10.9892 1.18162 12.0569C1.47964 13.1245 2.01581 14.1107 2.74984 14.9414" stroke="white" stroke-width="1.84387" stroke-linecap="round" stroke-linejoin="round"/>
<path d="M14.6668 14.6667L11.0002 11L7.3335 14.6667" stroke="white" stroke-width="1.84387" stroke-linecap="round" stroke-linejoin="round"/>
</g>
<defs>
<clipPath id="clip0_885_3481">
<rect width="22" height="22" fill="white"/>
</clipPath>
</defs>
</svg>
