<svg width="22" height="22" viewBox="0 0 22 22" fill="none" xmlns="http://www.w3.org/2000/svg">
    <path
        d="M11.9167 20.8543H4.58337C2.36504 20.8543 1.14587 19.6352 1.14587 17.4168V10.0835C1.14587 7.86516 2.36504 6.646 4.58337 6.646H9.16671C9.54254 6.646 9.85421 6.95766 9.85421 7.3335V17.4168C9.85421 18.8652 10.4684 19.4793 11.9167 19.4793C12.2925 19.4793 12.6042 19.791 12.6042 20.1668C12.6042 20.5427 12.2925 20.8543 11.9167 20.8543ZM4.58337 8.021C3.13504 8.021 2.52087 8.63516 2.52087 10.0835V17.4168C2.52087 18.8652 3.13504 19.4793 4.58337 19.4793H8.98336C8.65336 18.9385 8.47921 18.251 8.47921 17.4168V8.021H4.58337Z"
        fill="#A2A2A2" />
    <path
        d="M9.16671 8.02067H4.58337C4.20754 8.02067 3.89587 7.709 3.89587 7.33317V5.49984C3.89587 4.1065 5.02337 2.979 6.41671 2.979H9.26753C9.47836 2.979 9.68005 3.07982 9.80839 3.24482C9.93672 3.41898 9.98253 3.63901 9.92753 3.84067C9.87253 4.04234 9.85421 4.2715 9.85421 4.58317V7.33317C9.85421 7.709 9.54254 8.02067 9.16671 8.02067ZM5.27087 6.64567H8.47921V4.58317C8.47921 4.50067 8.47921 4.42734 8.47921 4.354H6.41671C5.78421 4.354 5.27087 4.86734 5.27087 5.49984V6.64567Z"
        fill="#A2A2A2" />
    <path
        d="M12.8334 12.6043C12.4575 12.6043 12.1459 12.2927 12.1459 11.9168V7.3335C12.1459 6.95766 12.4575 6.646 12.8334 6.646C13.2092 6.646 13.5209 6.95766 13.5209 7.3335V11.9168C13.5209 12.2927 13.2092 12.6043 12.8334 12.6043Z"
        fill="#A2A2A2" />
    <path
        d="M16.5 12.6043C16.1242 12.6043 15.8125 12.2927 15.8125 11.9168V7.3335C15.8125 6.95766 16.1242 6.646 16.5 6.646C16.8758 6.646 17.1875 6.95766 17.1875 7.3335V11.9168C17.1875 12.2927 16.8758 12.6043 16.5 12.6043Z"
        fill="#A2A2A2" />
    <path
        d="M16.5 20.8543H12.8334C12.4575 20.8543 12.1459 20.5427 12.1459 20.1668V16.5002C12.1459 15.6202 12.87 14.896 13.75 14.896H15.5834C16.4634 14.896 17.1875 15.6202 17.1875 16.5002V20.1668C17.1875 20.5427 16.8759 20.8543 16.5 20.8543ZM13.5209 19.4793H15.8125V16.5002C15.8125 16.3718 15.7117 16.271 15.5834 16.271H13.75C13.6217 16.271 13.5209 16.3718 13.5209 16.5002V19.4793Z"
        fill="#A2A2A2" />
    <path
        d="M5.5 16.2707C5.12417 16.2707 4.8125 15.959 4.8125 15.5832V11.9165C4.8125 11.5407 5.12417 11.229 5.5 11.229C5.87583 11.229 6.1875 11.5407 6.1875 11.9165V15.5832C6.1875 15.959 5.87583 16.2707 5.5 16.2707Z"
        fill="#A2A2A2" />
    <path
        d="M17.4166 20.8543H11.9166C9.69829 20.8543 8.47913 19.6352 8.47913 17.4168V4.5835C8.47913 2.36516 9.69829 1.146 11.9166 1.146H17.4166C19.635 1.146 20.8541 2.36516 20.8541 4.5835V17.4168C20.8541 19.6352 19.635 20.8543 17.4166 20.8543ZM11.9166 2.521C10.4683 2.521 9.85413 3.13516 9.85413 4.5835V17.4168C9.85413 18.8652 10.4683 19.4793 11.9166 19.4793H17.4166C18.865 19.4793 19.4791 18.8652 19.4791 17.4168V4.5835C19.4791 3.13516 18.865 2.521 17.4166 2.521H11.9166Z"
        fill="#A2A2A2" />
</svg>
