<svg width="19" height="19" viewBox="0 0 19 19" fill="none" xmlns="http://www.w3.org/2000/svg">
<g clip-path="url(#clip0_529_204)">
<path d="M18.0868 11.9244C18.0149 12.1736 17.8568 12.3748 17.6316 12.5042L16.0887 13.3667V15.13C16.0887 15.6571 15.6574 16.0884 15.1303 16.0884H13.3622L12.5045 17.6313C12.3751 17.8565 12.1739 18.0146 11.9247 18.0865C11.6803 18.1536 11.4216 18.1248 11.1964 18.0002L9.50013 17.0515L7.80388 18.0002C7.65534 18.0817 7.49722 18.12 7.3343 18.12C7.24805 18.12 7.1618 18.1104 7.07555 18.0865C6.82639 18.0146 6.62513 17.8565 6.49576 17.6313L5.63805 16.0884H3.86993C3.34284 16.0884 2.91159 15.6571 2.91159 15.13V13.3667L1.36868 12.5042C1.14347 12.3748 0.985343 12.1736 0.913468 11.9244C0.846385 11.68 0.875135 11.4213 0.999718 11.1961L1.94847 9.49981L0.999718 7.80356C0.740968 7.33877 0.908677 6.75419 1.36868 6.49544L2.91159 5.63294V3.86961C2.91159 3.34252 3.34284 2.91127 3.86993 2.91127H5.63805L6.49576 1.36836C6.62513 1.14315 6.82639 0.985023 7.07555 0.913148C7.31993 0.846065 7.57868 0.874815 7.80388 0.999399L9.50013 1.94815L11.1964 0.999399C11.4216 0.874815 11.6803 0.846065 11.9247 0.913148C12.1739 0.985023 12.3751 1.14315 12.5045 1.36836L13.3622 2.91127H15.1303C15.6574 2.91127 16.0887 3.34252 16.0887 3.86961V5.63294L17.6316 6.49544C18.0916 6.75419 18.2593 7.33877 18.0006 7.80356L17.0518 9.49981L18.0006 11.1961C18.1251 11.4213 18.1539 11.68 18.0868 11.9244Z" fill="url(#paint0_linear_529_204)"/>
<path d="M8.54202 12.375C8.47909 12.3751 8.41677 12.3627 8.35863 12.3386C8.30049 12.3145 8.24769 12.2792 8.20325 12.2346L5.80742 9.8388C5.76165 9.7946 5.72515 9.74172 5.70004 9.68326C5.67492 9.6248 5.6617 9.56193 5.66115 9.4983C5.6606 9.43468 5.67272 9.37159 5.69681 9.3127C5.72091 9.25381 5.75649 9.20031 5.80148 9.15532C5.84647 9.11033 5.89997 9.07475 5.95886 9.05066C6.01774 9.02656 6.08084 9.01444 6.14446 9.01499C6.20809 9.01555 6.27096 9.02876 6.32942 9.05388C6.38788 9.07899 6.44076 9.11549 6.48496 9.16126L8.54202 11.2183L12.9949 6.76542C13.0391 6.71966 13.092 6.68316 13.1505 6.65804C13.2089 6.63293 13.2718 6.61971 13.3354 6.61916C13.399 6.61861 13.4621 6.63073 13.521 6.65482C13.5799 6.67892 13.6334 6.7145 13.6784 6.75949C13.7234 6.80448 13.759 6.85798 13.7831 6.91686C13.8072 6.97575 13.8193 7.03885 13.8187 7.10247C13.8182 7.16609 13.805 7.22897 13.7798 7.28743C13.7547 7.34589 13.7182 7.39877 13.6725 7.44297L8.88079 12.2346C8.83636 12.2792 8.78355 12.3145 8.72541 12.3386C8.66728 12.3627 8.60495 12.3751 8.54202 12.375Z" fill="#0E93D1"/>
</g>
<defs>
<linearGradient id="paint0_linear_529_204" x1="9.50014" y1="18.1219" x2="9.50014" y2="0.87817" gradientUnits="userSpaceOnUse">
<stop stop-color="white"/>
<stop offset="0.994" stop-color="#98DDFF"/>
</linearGradient>
<clipPath id="clip0_529_204">
<rect width="19" height="19" fill="white"/>
</clipPath>
</defs>
</svg>
