<svg width="60" height="60" viewBox="0 0 60 60" fill="none" xmlns="http://www.w3.org/2000/svg">
<g filter="url(#filter0_b_263_4469)">
<circle cx="30" cy="30" r="30" fill="#0E93D1"/>
<circle cx="30" cy="30" r="29.5" stroke="black" stroke-opacity="0.1"/>
</g>
<g clip-path="url(#clip0_263_4469)">
<path d="M39.6974 25.0248C40.7052 25.0248 41.5222 24.2077 41.5222 23.1999C41.5222 22.1921 40.7052 21.375 39.6974 21.375C38.6895 21.375 37.8725 22.1921 37.8725 23.1999C37.8736 24.2072 38.69 25.0235 39.6974 25.0248ZM39.6974 22.6569C39.8046 22.6569 39.9094 22.6887 39.9986 22.7483C40.0878 22.8079 40.1573 22.8926 40.1983 22.9916C40.2394 23.0907 40.2501 23.1998 40.2292 23.305C40.2083 23.4101 40.1566 23.5068 40.0808 23.5826C40.005 23.6584 39.9083 23.7101 39.8031 23.731C39.698 23.7519 39.5889 23.7412 39.4898 23.7002C39.3907 23.6591 39.3061 23.5896 39.2465 23.5004C39.1869 23.4113 39.1551 23.3064 39.1551 23.1992C39.1553 23.0554 39.2124 22.9176 39.3141 22.8159C39.4158 22.7143 39.5536 22.6571 39.6974 22.6569ZM41.5137 25.7915C41.4376 25.7526 41.3545 25.7293 41.2692 25.7229C41.184 25.7166 41.0983 25.7274 41.0173 25.7546C40.9363 25.7819 40.8615 25.825 40.7974 25.8816C40.7333 25.9381 40.6812 26.0069 40.644 26.0839C40.6069 26.1609 40.5855 26.2445 40.5812 26.3299C40.5768 26.4152 40.5895 26.5006 40.6186 26.581C40.6478 26.6614 40.6926 26.7351 40.7506 26.7979C40.8087 26.8607 40.8786 26.9112 40.9565 26.9466C43.3792 28.1166 44.7188 29.5831 44.7188 31.0795C44.7188 32.6336 43.2167 34.2005 40.5988 35.3784C37.7792 36.6468 34.0154 37.3451 30.0015 37.3451C25.9876 37.3451 22.2245 36.6468 19.4042 35.3784C16.7855 34.2012 15.2841 32.6343 15.2841 31.0795C15.2841 29.5831 16.6202 28.118 19.0465 26.9466C19.2009 26.8751 19.3205 26.7453 19.3792 26.5856C19.4378 26.426 19.4307 26.2496 19.3592 26.0952C19.3231 26.0172 19.2717 25.9472 19.208 25.8895C19.1444 25.8317 19.0697 25.7874 18.9886 25.759C18.9074 25.7307 18.8214 25.719 18.7356 25.7246C18.6499 25.7301 18.5661 25.7529 18.4893 25.7915C15.5947 27.1867 14 29.0643 14 31.078C14 35.3107 21.0281 38.6255 30 38.6255C38.972 38.6255 46.0001 35.31 46.0001 31.078C46.0022 29.0643 44.4081 27.1867 41.5137 25.7915Z" fill="white"/>
<path d="M20.9775 32.7569C21.511 33.2467 22.2347 33.4916 23.1487 33.4916C24.0195 33.4916 24.7254 33.2541 25.2665 32.779C25.8076 32.304 26.0778 31.6864 26.0774 30.9263C26.0774 30.4038 25.9417 29.9727 25.6705 29.633C25.3993 29.2934 25.0192 29.0796 24.5304 28.9917C24.9337 28.8668 25.2406 28.666 25.451 28.3895C25.6663 28.0981 25.7775 27.7428 25.7667 27.3806C25.7667 26.7597 25.5373 26.268 25.0784 25.9055C24.6195 25.543 23.9905 25.364 23.1915 25.3682C22.2955 25.3682 21.5987 25.5709 21.1008 25.9761C20.6029 26.3813 20.3469 26.9487 20.3326 27.6784H22.2281C22.2352 27.4105 22.3138 27.2033 22.4639 27.057C22.614 26.9107 22.8247 26.8375 23.096 26.8375C23.3252 26.8288 23.5488 26.9095 23.7195 27.0626C23.7997 27.1366 23.863 27.2271 23.9051 27.3278C23.9471 27.4285 23.9669 27.5372 23.9631 27.6462C23.9631 27.946 23.8667 28.1745 23.6739 28.3317C23.481 28.489 23.2043 28.5676 22.8437 28.5676H22.734V29.826H22.9749C23.3743 29.826 23.6679 29.9108 23.8556 30.0803C24.0433 30.2499 24.1368 30.515 24.1363 30.8755C24.1363 31.1966 24.0489 31.4421 23.8741 31.6116C23.6993 31.7812 23.4478 31.866 23.1195 31.866C22.8055 31.866 22.568 31.7776 22.407 31.6009C22.2459 31.4242 22.165 31.1627 22.164 30.8163V30.6881H20.1772V30.7629C20.1772 31.6017 20.444 32.2663 20.9775 32.7569ZM30.0342 33.4916C30.9477 33.4916 31.6767 33.2321 32.2211 32.7128C32.7655 32.1935 33.0377 31.5031 33.0377 30.6413C33.0377 29.924 32.8199 29.3324 32.3843 28.8663C31.9487 28.4003 31.399 28.1673 30.7354 28.1673C30.5924 28.1669 30.4495 28.1766 30.3078 28.1965C30.1753 28.2154 30.0445 28.245 29.9166 28.2849L31.7479 25.5222H29.5632L28.4652 27.221C27.8903 28.1207 27.5129 28.806 27.3328 29.2767C27.1591 29.7149 27.0675 30.1814 27.0628 30.6527C27.0628 31.5201 27.3305 32.2108 27.8659 32.7249C28.4012 33.2389 29.124 33.4945 30.0342 33.4916ZM29.1471 29.8575C29.3594 29.6413 29.6478 29.5333 30.0121 29.5333C30.3765 29.5333 30.6651 29.6413 30.8779 29.8575C31.0902 30.0737 31.1964 30.3672 31.1964 30.7383C31.1964 31.1093 31.0902 31.4002 30.8779 31.6112C30.6656 31.8254 30.3772 31.9326 30.0129 31.9326C29.6486 31.9326 29.3599 31.8264 29.1471 31.6141C28.9348 31.3999 28.8286 31.1089 28.8286 30.7411C28.8286 30.3734 28.9348 30.0789 29.1471 29.8575ZM36.8663 33.4916C37.7874 33.4916 38.5111 33.1354 39.0375 32.4228C39.5638 31.7103 39.8271 30.7364 39.8271 29.5013C39.8271 28.1916 39.5675 27.1753 39.0482 26.4522C38.529 25.7291 37.8017 25.3679 36.8663 25.3684C35.9452 25.3684 35.2198 25.7289 34.6901 26.45C34.1605 27.1711 33.8954 28.1635 33.8949 29.4271C33.8949 30.6945 34.16 31.6896 34.6901 32.4121C35.2203 33.1346 35.9457 33.4945 36.8663 33.4916ZM36.106 27.5403C36.2633 27.1493 36.5167 26.9539 36.8663 26.9539C37.2055 26.9539 37.4544 27.1538 37.6131 27.5538C37.7717 27.9538 37.8511 28.5766 37.8511 29.4222C37.8511 30.2773 37.7718 30.902 37.6131 31.2962C37.4545 31.6905 37.2055 31.8886 36.8663 31.8905C36.52 31.8905 36.2675 31.6934 36.1089 31.2991C35.9503 30.9048 35.8709 30.2792 35.8709 29.4222C35.8704 28.56 35.9488 27.9334 36.106 27.5425V27.5403Z" fill="white"/>
</g>
<defs>
<filter id="filter0_b_263_4469" x="-34.2" y="-34.2" width="128.4" height="128.4" filterUnits="userSpaceOnUse" color-interpolation-filters="sRGB">
<feFlood flood-opacity="0" result="BackgroundImageFix"/>
<feGaussianBlur in="BackgroundImageFix" stdDeviation="17.1"/>
<feComposite in2="SourceAlpha" operator="in" result="effect1_backgroundBlur_263_4469"/>
<feBlend mode="normal" in="SourceGraphic" in2="effect1_backgroundBlur_263_4469" result="shape"/>
</filter>
<clipPath id="clip0_263_4469">
<rect width="32" height="32" fill="white" transform="translate(14 14)"/>
</clipPath>
</defs>
</svg>
