<svg width="26" height="30" viewBox="0 0 26 30" fill="none" xmlns="http://www.w3.org/2000/svg">
    <path
        d="M25.0001 23.932C24.9038 23.1287 24.5658 22.3735 24.0307 21.7666C23.4956 21.1597 22.7888 20.7297 22.0038 20.5336L16.2813 18.9239V16.7039C17.4105 15.7781 18.393 14.52 18.5857 13.125H20.4063C20.8041 13.125 21.1857 12.967 21.467 12.6857C21.7483 12.4044 21.9063 12.0228 21.9063 11.625V9.9375C21.9055 9.65543 21.825 9.37934 21.674 9.14106C21.5231 8.90278 21.3079 8.71202 21.0532 8.59078C21.0883 8.30662 21.1071 8.02068 21.1094 7.73437C21.1094 4.84547 20.0552 0 13.0001 0C5.9449 0 4.89068 4.84547 4.89068 7.73437C4.89288 8.02068 4.9115 8.30661 4.94646 8.59078C4.69187 8.71209 4.47674 8.90287 4.32588 9.14115C4.17502 9.37942 4.09457 9.65548 4.09381 9.9375V11.625C4.09381 12.0228 4.25184 12.4044 4.53315 12.6857C4.81445 12.967 5.19598 13.125 5.59381 13.125H7.41584C7.60849 14.5162 8.58771 15.772 9.71974 16.6969V18.9239L4.01084 20.5312C3.22327 20.7258 2.5135 21.1553 1.97576 21.7627C1.43801 22.3701 1.09772 23.1267 1.00006 23.932L0.347087 29.4764C0.332558 29.5999 0.367655 29.724 0.444659 29.8216C0.521663 29.9192 0.634269 29.9822 0.757712 29.9967C0.775908 29.9989 0.794224 30 0.812556 30C0.927287 29.9999 1.03799 29.9577 1.12369 29.8814C1.20939 29.8051 1.26413 29.7 1.27756 29.5861L1.93052 24.0417C2.0059 23.4231 2.26825 22.8421 2.68252 22.3765C3.09679 21.9109 3.64327 21.5828 4.24896 21.4359L7.12568 20.6273L9.79756 24.6352C9.83406 24.6898 9.88163 24.7361 9.93719 24.7711C9.99274 24.8062 10.055 24.8292 10.1201 24.8386C10.1424 24.8422 10.165 24.8439 10.1876 24.8437C10.2971 24.8438 10.4033 24.8055 10.4876 24.7355L12.5313 23.032V26.2392C12.5313 26.3635 12.5807 26.4828 12.6686 26.5707C12.7565 26.6586 12.8757 26.708 13.0001 26.708C13.1244 26.708 13.2436 26.6586 13.3315 26.5707C13.4194 26.4828 13.4688 26.3635 13.4688 26.2392V23.032L15.5126 24.7355C15.5968 24.8055 15.703 24.8438 15.8126 24.8437C15.8352 24.8439 15.8577 24.8422 15.8801 24.8386C15.9451 24.8292 16.0074 24.8062 16.0629 24.7711C16.1185 24.7361 16.1661 24.6898 16.2026 24.6352L18.8744 20.625L21.7657 21.4402C22.3682 21.5887 22.9113 21.9172 23.3226 22.3819C23.7339 22.8466 23.994 23.4256 24.0682 24.0417L24.7207 29.5861C24.7341 29.7004 24.7892 29.8057 24.8752 29.882C24.9613 29.9583 25.0725 30.0003 25.1876 30C25.206 30.0001 25.2245 29.999 25.2429 29.9967C25.3663 29.9822 25.4789 29.9192 25.5559 29.8216C25.6329 29.724 25.668 29.5999 25.6535 29.4764L25.0001 23.932ZM7.40927 8.4375H7.25084C7.37506 4.28766 9.16474 2.34375 12.8636 2.34375C16.3596 2.34375 18.1488 4.08094 18.4418 7.77422C18.3259 7.28375 18.0471 6.84709 17.6509 6.53556C17.2547 6.22403 16.7646 6.05605 16.2607 6.05906C15.6121 6.07876 14.9753 6.23733 14.3932 6.52406C13.9607 6.74489 13.4861 6.87113 13.001 6.89437C12.5159 6.87113 12.0413 6.74489 11.6088 6.52406C11.0267 6.23733 10.3899 6.07876 9.74131 6.05906C8.13677 6.05906 7.54568 7.42641 7.40927 8.4375ZM20.9688 11.625C20.9688 11.7742 20.9095 11.9173 20.8041 12.0227C20.6986 12.1282 20.5555 12.1875 20.4063 12.1875H18.6251V9.375H20.4063C20.5555 9.375 20.6986 9.43426 20.8041 9.53975C20.9095 9.64524 20.9688 9.78832 20.9688 9.9375V11.625ZM13.0001 0.9375C18.9274 0.9375 20.1719 4.63312 20.1719 7.73437C20.1704 7.96936 20.156 8.20409 20.1288 8.4375H19.4135C19.2813 3.7125 17.1382 1.40625 12.8636 1.40625C8.58912 1.40625 6.44693 3.7125 6.31381 8.4375H5.87177C5.84457 8.20409 5.83018 7.96936 5.82865 7.73437C5.82818 4.63312 7.07271 0.9375 13.0001 0.9375ZM5.03131 11.625V9.9375C5.03131 9.78832 5.09057 9.64524 5.19606 9.53975C5.30155 9.43426 5.44462 9.375 5.59381 9.375H7.37506V12.1875H5.59381C5.44462 12.1875 5.30155 12.1282 5.19606 12.0227C5.09057 11.9173 5.03131 11.7742 5.03131 11.625ZM8.31256 12.6352V8.90625C8.31256 8.82797 8.33927 6.99516 9.74037 6.99516C10.2625 7.01688 10.7739 7.15001 11.2404 7.38562C11.7876 7.65835 12.3871 7.81006 12.9982 7.83047C13.6093 7.81006 14.2088 7.65835 14.756 7.38562C15.2224 7.15001 15.7339 7.01688 16.256 6.99516C17.6608 6.99656 17.6876 8.82937 17.6876 8.90625V12.3314L15.476 13.1606C15.2622 12.9112 14.9675 12.745 14.6435 12.6912C14.3195 12.6374 13.9869 12.6993 13.704 12.8662C13.421 13.033 13.2059 13.2942 13.0962 13.6038C12.9866 13.9134 12.9894 14.2517 13.1043 14.5594C13.2191 14.8672 13.4386 15.1247 13.7243 15.2867C14.01 15.4488 14.3436 15.5052 14.6667 15.4459C14.9897 15.3866 15.2816 15.2155 15.4911 14.9625C15.7007 14.7096 15.8145 14.391 15.8126 14.0625C15.8126 14.0536 15.8102 14.0456 15.8097 14.0367L17.576 13.3744C16.9802 15.5423 13.9811 17.3437 13.0108 17.3437C11.9266 17.3437 8.31256 15.1181 8.31256 12.6361V12.6352ZM14.8751 14.0625C14.8751 14.1552 14.8476 14.2458 14.7961 14.3229C14.7446 14.4 14.6713 14.4601 14.5857 14.4956C14.5 14.531 14.4058 14.5403 14.3149 14.5222C14.2239 14.5042 14.1404 14.4595 14.0748 14.394C14.0093 14.3284 13.9646 14.2449 13.9466 14.1539C13.9285 14.063 13.9378 13.9688 13.9732 13.8831C14.0087 13.7975 14.0688 13.7243 14.1459 13.6727C14.223 13.6212 14.3136 13.5937 14.4063 13.5937C14.5306 13.5937 14.6499 13.6431 14.7378 13.731C14.8257 13.8189 14.8751 13.9382 14.8751 14.0625ZM13.0108 18.2812C13.851 18.1782 14.6526 17.8685 15.3438 17.3798V19.0247L13.0001 21.3684L10.6563 19.0247V17.3723C11.3541 17.8651 12.163 18.1773 13.0108 18.2812ZM10.2883 23.6812L8.07443 20.3602L10.0976 19.7916L12.3058 21.9998L10.2883 23.6812ZM15.7118 23.6812L13.6961 21.9998L15.9044 19.7916L17.9276 20.3602L15.7118 23.6812Z"
        fill="#0E93D1" />
    <path
        d="M13 27.6562C12.8757 27.6562 12.7565 27.7056 12.6685 27.7935C12.5806 27.8815 12.5312 28.0007 12.5312 28.125V29.5312C12.5312 29.6556 12.5806 29.7748 12.6685 29.8627C12.7565 29.9506 12.8757 30 13 30C13.1243 30 13.2435 29.9506 13.3315 29.8627C13.4194 29.7748 13.4688 29.6556 13.4688 29.5312V28.125C13.4688 28.0007 13.4194 27.8815 13.3315 27.7935C13.2435 27.7056 13.1243 27.6562 13 27.6562Z"
        fill="#0E93D1" />
</svg>
