<svg width="28" height="28" viewBox="0 0 28 28" fill="none" xmlns="http://www.w3.org/2000/svg">
    <mask id="path-1-inside-1_262_1204" fill="white">
        <path
            d="M16.5 10.2502C16.5 8.87143 15.3787 7.75018 14 7.75018C12.6213 7.75018 11.5 8.87143 11.5 10.2502C11.5 11.6289 12.6213 12.7502 14 12.7502C15.3787 12.7502 16.5 11.6289 16.5 10.2502ZM12.75 10.2502C12.75 9.5608 13.3106 9.00018 14 9.00018C14.6894 9.00018 15.25 9.5608 15.25 10.2502C15.25 10.9396 14.6894 11.5002 14 11.5002C13.3106 11.5002 12.75 10.9396 12.75 10.2502ZM27.125 24.0002H24.625V12.5814L25.5081 13.2296C25.6013 13.298 25.7117 13.3393 25.827 13.3487C25.9422 13.3582 26.0579 13.3355 26.161 13.2832C26.2641 13.2308 26.3507 13.1509 26.4111 13.0523C26.4715 12.9537 26.5034 12.8402 26.5031 12.7246L26.4969 9.59955C26.4967 9.50158 26.4736 9.40501 26.4293 9.31762C26.385 9.23023 26.3208 9.15447 26.2419 9.09643L24 7.45205V0.875178C24 0.709418 23.9342 0.550446 23.8169 0.433236C23.6997 0.316026 23.5408 0.250178 23.375 0.250178H19.625C19.4592 0.250178 19.3003 0.316026 19.1831 0.433236C19.0658 0.550446 19 0.709418 19 0.875178V3.78393L14.3481 0.371428C14.2407 0.292335 14.1107 0.249776 13.9773 0.250001C13.8439 0.250226 13.7141 0.293223 13.6069 0.372678L1.75 9.14768C1.67129 9.20594 1.60738 9.28189 1.56341 9.36939C1.51944 9.45689 1.49665 9.5535 1.49687 9.65143L1.50313 12.7764C1.50344 12.892 1.53581 13.0053 1.59663 13.1036C1.65744 13.2019 1.74433 13.2814 1.84763 13.3333C1.95093 13.3851 2.0666 13.4073 2.18177 13.3974C2.29693 13.3875 2.40709 13.3458 2.5 13.2771L3.375 12.6296V24.0002H0.875C0.70924 24.0002 0.550268 24.066 0.433058 24.1832C0.315848 24.3004 0.25 24.4594 0.25 24.6252V27.1252C0.25 27.2909 0.315848 27.4499 0.433058 27.5671C0.550268 27.6843 0.70924 27.7502 0.875 27.7502H27.125C27.2908 27.7502 27.4497 27.6843 27.5669 27.5671C27.6842 27.4499 27.75 27.2909 27.75 27.1252V24.6252C27.75 24.4594 27.6842 24.3004 27.5669 24.1832C27.4497 24.066 27.2908 24.0002 27.125 24.0002ZM20.25 4.62518V1.50018H22.75V6.53518L20.2369 4.69143C20.2394 4.6683 20.25 4.64893 20.25 4.62518ZM2.75062 11.5371L2.7475 9.96455L13.98 1.65205L25.2475 9.91768L25.2506 11.4902L14.3544 3.49643C14.2469 3.41733 14.117 3.37478 13.9835 3.375C13.8501 3.37523 13.7203 3.41822 13.6131 3.49768L2.75062 11.5371ZM5.875 26.5002H1.5V25.2502H5.875V26.5002ZM12.125 26.5002H7.125V16.5002C7.125 16.1552 7.40562 15.8752 7.75 15.8752H11.5C11.8444 15.8752 12.125 16.1552 12.125 16.5002V26.5002ZM11.5 14.6252H7.75C6.71625 14.6252 5.875 15.4664 5.875 16.5002V24.0002H4.625V11.7046L13.9869 4.77643L23.375 11.6639V24.0002H13.375V16.5002C13.375 15.4664 12.5337 14.6252 11.5 14.6252ZM26.5 26.5002H13.375V25.2502H26.5V26.5002ZM15.25 15.2502V19.6252C15.25 19.7909 15.3158 19.9499 15.4331 20.0671C15.5503 20.1843 15.7092 20.2502 15.875 20.2502H20.875C21.0408 20.2502 21.1997 20.1843 21.3169 20.0671C21.4342 19.9499 21.5 19.7909 21.5 19.6252V15.2502C21.5 15.0844 21.4342 14.9254 21.3169 14.8082C21.1997 14.691 21.0408 14.6252 20.875 14.6252H15.875C15.7092 14.6252 15.5503 14.691 15.4331 14.8082C15.3158 14.9254 15.25 15.0844 15.25 15.2502ZM16.5 15.8752H20.25V19.0002H16.5V15.8752Z" />
    </mask>
    <path
        d="M16.5 10.2502C16.5 8.87143 15.3787 7.75018 14 7.75018C12.6213 7.75018 11.5 8.87143 11.5 10.2502C11.5 11.6289 12.6213 12.7502 14 12.7502C15.3787 12.7502 16.5 11.6289 16.5 10.2502ZM12.75 10.2502C12.75 9.5608 13.3106 9.00018 14 9.00018C14.6894 9.00018 15.25 9.5608 15.25 10.2502C15.25 10.9396 14.6894 11.5002 14 11.5002C13.3106 11.5002 12.75 10.9396 12.75 10.2502ZM27.125 24.0002H24.625V12.5814L25.5081 13.2296C25.6013 13.298 25.7117 13.3393 25.827 13.3487C25.9422 13.3582 26.0579 13.3355 26.161 13.2832C26.2641 13.2308 26.3507 13.1509 26.4111 13.0523C26.4715 12.9537 26.5034 12.8402 26.5031 12.7246L26.4969 9.59955C26.4967 9.50158 26.4736 9.40501 26.4293 9.31762C26.385 9.23023 26.3208 9.15447 26.2419 9.09643L24 7.45205V0.875178C24 0.709418 23.9342 0.550446 23.8169 0.433236C23.6997 0.316026 23.5408 0.250178 23.375 0.250178H19.625C19.4592 0.250178 19.3003 0.316026 19.1831 0.433236C19.0658 0.550446 19 0.709418 19 0.875178V3.78393L14.3481 0.371428C14.2407 0.292335 14.1107 0.249776 13.9773 0.250001C13.8439 0.250226 13.7141 0.293223 13.6069 0.372678L1.75 9.14768C1.67129 9.20594 1.60738 9.28189 1.56341 9.36939C1.51944 9.45689 1.49665 9.5535 1.49687 9.65143L1.50313 12.7764C1.50344 12.892 1.53581 13.0053 1.59663 13.1036C1.65744 13.2019 1.74433 13.2814 1.84763 13.3333C1.95093 13.3851 2.0666 13.4073 2.18177 13.3974C2.29693 13.3875 2.40709 13.3458 2.5 13.2771L3.375 12.6296V24.0002H0.875C0.70924 24.0002 0.550268 24.066 0.433058 24.1832C0.315848 24.3004 0.25 24.4594 0.25 24.6252V27.1252C0.25 27.2909 0.315848 27.4499 0.433058 27.5671C0.550268 27.6843 0.70924 27.7502 0.875 27.7502H27.125C27.2908 27.7502 27.4497 27.6843 27.5669 27.5671C27.6842 27.4499 27.75 27.2909 27.75 27.1252V24.6252C27.75 24.4594 27.6842 24.3004 27.5669 24.1832C27.4497 24.066 27.2908 24.0002 27.125 24.0002ZM20.25 4.62518V1.50018H22.75V6.53518L20.2369 4.69143C20.2394 4.6683 20.25 4.64893 20.25 4.62518ZM2.75062 11.5371L2.7475 9.96455L13.98 1.65205L25.2475 9.91768L25.2506 11.4902L14.3544 3.49643C14.2469 3.41733 14.117 3.37478 13.9835 3.375C13.8501 3.37523 13.7203 3.41822 13.6131 3.49768L2.75062 11.5371ZM5.875 26.5002H1.5V25.2502H5.875V26.5002ZM12.125 26.5002H7.125V16.5002C7.125 16.1552 7.40562 15.8752 7.75 15.8752H11.5C11.8444 15.8752 12.125 16.1552 12.125 16.5002V26.5002ZM11.5 14.6252H7.75C6.71625 14.6252 5.875 15.4664 5.875 16.5002V24.0002H4.625V11.7046L13.9869 4.77643L23.375 11.6639V24.0002H13.375V16.5002C13.375 15.4664 12.5337 14.6252 11.5 14.6252ZM26.5 26.5002H13.375V25.2502H26.5V26.5002ZM15.25 15.2502V19.6252C15.25 19.7909 15.3158 19.9499 15.4331 20.0671C15.5503 20.1843 15.7092 20.2502 15.875 20.2502H20.875C21.0408 20.2502 21.1997 20.1843 21.3169 20.0671C21.4342 19.9499 21.5 19.7909 21.5 19.6252V15.2502C21.5 15.0844 21.4342 14.9254 21.3169 14.8082C21.1997 14.691 21.0408 14.6252 20.875 14.6252H15.875C15.7092 14.6252 15.5503 14.691 15.4331 14.8082C15.3158 14.9254 15.25 15.0844 15.25 15.2502ZM16.5 15.8752H20.25V19.0002H16.5V15.8752Z"
        fill="#0E93D1" stroke="white" stroke-width="0.2" mask="url(#path-1-inside-1_262_1204)" />
</svg>
