<svg width="27" height="30" viewBox="0 0 27 30" fill="none" xmlns="http://www.w3.org/2000/svg">
<path d="M6.43129 13.6862C6.43129 17.6272 9.62604 20.8219 13.567 20.8219C17.508 20.8219 20.7028 17.6272 20.7028 13.6862C20.7028 9.74516 17.508 6.55041 13.567 6.55041C9.62795 6.55472 6.43591 9.74707 6.43129 13.6862ZM13.567 7.53458C16.9645 7.53458 19.7186 10.2887 19.7186 13.6862C19.7186 17.0836 16.9645 19.8377 13.567 19.8377C10.1696 19.8377 7.41547 17.0836 7.41547 13.6862C7.41934 10.2903 10.1712 7.53846 13.567 7.53458Z" fill="#323232"/>
<path d="M23.1286 22.035L19.2738 23.8564C19.0123 23.37 18.6272 22.9612 18.1572 22.6712C17.6873 22.3812 17.1492 22.2203 16.5972 22.2047L13.0387 22.1069C12.4751 22.0907 11.9223 21.948 11.4214 21.6893L11.0593 21.5017C10.1458 21.0255 9.13073 20.7774 8.10061 20.7785C7.0705 20.7796 6.05592 21.0298 5.14344 21.5079L5.16602 20.6876C5.16781 20.623 5.15686 20.5586 5.13379 20.4983C5.11072 20.4379 5.07598 20.3826 5.03156 20.3357C4.98713 20.2887 4.9339 20.251 4.87489 20.2246C4.81588 20.1983 4.75225 20.1838 4.68765 20.182L0.785524 20.0747C0.720925 20.0729 0.656608 20.0838 0.596247 20.1069C0.535886 20.13 0.480665 20.1648 0.433738 20.2092C0.386811 20.2536 0.349099 20.3069 0.322757 20.3659C0.296414 20.4249 0.281957 20.4885 0.280212 20.5531L0.0445027 29.116C0.0427009 29.1806 0.0536482 29.2449 0.0767195 29.3053C0.0997907 29.3657 0.134534 29.4209 0.178963 29.4679C0.223393 29.5149 0.276639 29.5526 0.335658 29.579C0.394678 29.6053 0.458315 29.6198 0.522934 29.6216L4.425 29.729H4.43847C4.56669 29.729 4.68986 29.679 4.78177 29.5896C4.87368 29.5002 4.92706 29.3785 4.93055 29.2503L4.94181 28.8406L5.95551 28.2979C6.35324 28.0838 6.81869 28.0328 7.25332 28.1558L13.3069 29.8548C13.3174 29.858 13.3279 29.8604 13.3388 29.8628C13.7764 29.9543 14.2222 30.0003 14.6692 30C15.6159 30.0006 16.5515 29.7964 17.412 29.4015C17.4331 29.3918 17.4535 29.3806 17.473 29.3678L26.2501 23.6906C26.3554 23.6224 26.4307 23.5166 26.4607 23.3948C26.4906 23.273 26.473 23.1443 26.4112 23.0351C25.7597 21.8788 24.3143 21.4384 23.1286 22.035ZM1.0419 28.6513L1.25042 21.072L4.16862 21.1523L3.9601 28.7318L1.0419 28.6513ZM16.9687 28.5225C15.8996 29.0049 14.7058 29.1382 13.5567 28.9034L7.51954 27.2087C6.84023 27.0167 6.11288 27.0962 5.4911 27.4304L4.97306 27.708L5.1117 22.6686C5.91764 22.1326 6.85266 21.8226 7.81921 21.7711C8.78576 21.7195 9.74844 21.9283 10.6068 22.3755L10.9689 22.5632C11.6017 22.8899 12.2999 23.0702 13.0117 23.0909L16.5705 23.1887C17.57 23.2174 18.419 23.9291 18.6218 24.9085L13.321 24.7622C13.0492 24.7548 12.8231 24.9691 12.8154 25.2406C12.8119 25.3711 12.8603 25.4976 12.95 25.5924C13.0397 25.6872 13.1634 25.7425 13.2939 25.7462L19.1436 25.9071H19.1573C19.2855 25.907 19.4085 25.857 19.5003 25.7676C19.5921 25.6782 19.6454 25.5565 19.6489 25.4285C19.655 25.2146 19.639 25.0007 19.6014 24.7901L23.5551 22.9219C23.559 22.9202 23.5628 22.9183 23.5667 22.9164C23.8405 22.7778 24.1502 22.7263 24.4541 22.7689C24.758 22.8115 25.0416 22.9461 25.2668 23.1545L16.9687 28.5225ZM14.0591 5.16691V0.492087C14.0591 0.361577 14.0073 0.236413 13.915 0.144129C13.8227 0.0518447 13.6976 0 13.567 0C13.4365 0 13.3114 0.0518447 13.2191 0.144129C13.1268 0.236413 13.075 0.361577 13.075 0.492087V5.16691C13.075 5.29742 13.1268 5.42258 13.2191 5.51487C13.3114 5.60715 13.4365 5.659 13.567 5.659C13.6976 5.659 13.8227 5.60715 13.915 5.51487C14.0073 5.42258 14.0591 5.29742 14.0591 5.16691ZM17.7498 5.16691V2.95252C17.7498 2.82201 17.6979 2.69685 17.6056 2.60456C17.5134 2.51228 17.3882 2.46043 17.2577 2.46043C17.1272 2.46043 17.002 2.51228 16.9097 2.60456C16.8174 2.69685 16.7656 2.82201 16.7656 2.95252V5.16691C16.7656 5.29742 16.8174 5.42258 16.9097 5.51487C17.002 5.60715 17.1272 5.659 17.2577 5.659C17.3882 5.659 17.5134 5.60715 17.6056 5.51487C17.6979 5.42258 17.7498 5.29742 17.7498 5.16691ZM10.3685 5.16691V2.95252C10.3685 2.82201 10.3166 2.69685 10.2243 2.60456C10.1321 2.51228 10.0069 2.46043 9.87639 2.46043C9.74588 2.46043 9.62072 2.51228 9.52843 2.60456C9.43615 2.69685 9.38431 2.82201 9.38431 2.95252V5.16691C9.38431 5.29742 9.43615 5.42258 9.52843 5.51487C9.62072 5.60715 9.74588 5.659 9.87639 5.659C10.0069 5.659 10.1321 5.60715 10.2243 5.51487C10.3166 5.42258 10.3685 5.29742 10.3685 5.16691Z" fill="#323232"/>
<path d="M15.3494 12.1187H16.5534V12.7347H15.3027C15.2467 13.164 15.1223 13.5 14.9294 13.7427C14.7427 13.9853 14.469 14.1596 14.1081 14.2653C13.7534 14.3711 13.2805 14.424 12.6894 14.424V15.1613C12.6894 16.0013 13.0565 16.4213 13.7907 16.4213C14.5125 16.4213 14.8734 16.0169 14.8734 15.208H15.6574C15.6512 15.8302 15.4863 16.3 15.1627 16.6173C14.8392 16.9347 14.3787 17.0933 13.7814 17.0933C13.1654 17.0933 12.6956 16.9222 12.3721 16.58C12.0547 16.2378 11.8961 15.7587 11.8961 15.1427V13.8267C12.6054 13.8267 13.1281 13.8049 13.4641 13.7613C13.8063 13.7116 14.0552 13.612 14.2107 13.4627C14.3663 13.3071 14.4658 13.0644 14.5094 12.7347H11.4761V12.1187H14.5467V11.1107H11.4761V10.4853H16.5534V11.1107H15.3494V12.1187Z" fill="#323232"/>
</svg>
