<svg width="30" height="30" viewBox="0 0 30 30" fill="none" xmlns="http://www.w3.org/2000/svg">
    <path
        d="M14.9475 29.8052C14.8422 29.7116 14.6493 29.2616 14.2752 28.268L13.755 26.8652L12.96 26.7074C11.6448 26.4386 9.73352 25.7312 9.38882 25.3865C9.09062 25.0943 9.29522 24.5564 9.69872 24.5564C9.79232 24.5564 10.1487 24.6908 10.4937 24.8546C11.5632 25.3574 12.8667 25.7429 13.9365 25.8716C14.1234 25.895 14.3223 25.9592 14.3865 26.012C14.4507 26.0645 14.6613 26.5265 14.8542 27.0407C15.0528 27.5549 15.2223 27.9818 15.2283 27.9935C15.24 28.0052 15.4152 27.5903 15.6141 27.0758C15.8187 26.5613 16.0233 26.0996 16.0758 26.0528C16.1283 26.012 16.4088 25.9418 16.6953 25.9007C21.5931 25.2635 25.521 21.3125 26.1288 16.4144C26.1579 16.1513 26.2224 15.9116 26.2749 15.8534C26.3274 15.7949 26.7774 15.5963 27.2745 15.4091C27.7713 15.2162 28.1805 15.0467 28.1805 15.0233C28.1805 15.0059 27.7596 14.8247 27.2511 14.6258C26.7426 14.4272 26.2926 14.2283 26.2515 14.1815C26.2164 14.1347 26.1579 13.895 26.1288 13.6439C26.0001 12.5918 25.5795 11.2181 25.0533 10.1777C24.9072 9.88549 24.7902 9.58159 24.7902 9.49969C24.7902 9.27769 25.0884 9.00859 25.3278 9.00859C25.5849 9.00859 25.7076 9.13729 26.0058 9.73909C26.4852 10.6976 26.8884 11.972 27.0288 12.9596L27.1047 13.4798L28.4022 13.9709L29.7 14.468V15.485L29.3085 15.6371C29.0865 15.719 28.5078 15.9353 28.011 16.1222L27.111 16.4612L27.0117 17.0456C26.6085 19.3895 25.5213 21.5171 23.832 23.2646C22.0023 25.1525 19.7109 26.3567 17.151 26.7773L16.7301 26.8475L16.4904 27.467C16.356 27.812 16.1163 28.4489 15.9528 28.8815C15.6489 29.6999 15.4851 29.9336 15.234 29.9336C15.1578 29.9336 15.0291 29.8751 14.9475 29.8052Z"
        fill="#323232" />
    <path
        d="M3.59073 26.8945C3.41553 26.8243 3.26343 26.5729 3.29253 26.4034C3.32763 26.2339 12.282 12.2995 12.4689 12.13C12.615 11.9956 26.2221 3.24575 26.5317 3.08195C26.637 3.02945 26.7771 3.00006 26.8356 3.01776C26.9934 3.07026 27.1863 3.32765 27.1863 3.48545C27.1863 3.63755 18.2727 17.5366 18.0216 17.7823C17.8404 17.9635 4.00533 26.8654 3.83583 26.9122C3.77193 26.9296 3.66093 26.9236 3.59073 26.8945ZM11.4288 20.9209L17.3379 17.11L21.1428 11.2066C23.2413 7.95695 24.9423 5.28576 24.9306 5.27405C24.9072 5.24496 13.2816 12.6856 13.1238 12.8374C13.0536 12.9016 11.3178 15.5728 9.27213 18.7699C7.22043 21.967 5.51973 24.6208 5.48463 24.6616C5.45553 24.6967 5.44953 24.7318 5.47293 24.7318C5.49603 24.7318 8.17893 23.0194 11.4288 20.9209Z"
        fill="#323232" />
    <path
        d="M14.6259 16.8647C13.8894 16.6016 13.4217 16.0523 13.2816 15.3041C13.1238 14.4566 13.5681 13.5857 14.3688 13.1825C14.667 13.0304 14.7663 13.013 15.2337 13.013C15.7014 13.013 15.8007 13.0304 16.0986 13.1825C16.8993 13.5917 17.3436 14.4509 17.1858 15.3101C17.0688 15.9413 16.6599 16.4849 16.0986 16.7654C15.6897 16.964 15.0174 17.0108 14.6259 16.8647ZM15.6312 15.8828C15.8826 15.7835 16.1223 15.4913 16.1982 15.2048C16.362 14.6027 15.8649 13.9772 15.2337 13.9772C14.6025 13.9772 14.1057 14.6027 14.2692 15.2045C14.433 15.8069 15.0642 16.1225 15.6312 15.8828ZM14.3862 24.9014C13.7199 24.8429 13.0827 24.7202 12.3696 24.5156C11.3994 24.2351 11.2299 24.1241 11.2299 23.75C11.2299 23.5571 11.5047 23.2706 11.6916 23.2706C11.7441 23.2706 12.0249 23.3525 12.3171 23.4458C12.8724 23.6387 13.7199 23.8199 14.316 23.8841L14.6784 23.9192V23.627C14.6784 23.2121 14.877 22.9781 15.2337 22.9781C15.4383 22.9781 15.5142 23.0072 15.6078 23.1302C15.7131 23.2646 15.7305 23.3699 15.7305 23.9486C15.7305 24.5507 15.7188 24.6209 15.5961 24.761C15.4383 24.9482 15.1929 24.9776 14.3862 24.9014ZM16.8762 24.5975C16.6833 24.4046 16.6776 24.1475 16.8588 23.9429C16.9524 23.8319 17.1336 23.7557 17.5368 23.6507C19.5183 23.1248 21.2133 21.9557 22.4874 20.2373C22.9374 19.6352 23.5512 18.4253 23.7966 17.6597C23.9718 17.1161 24.2058 15.947 24.2058 15.608C24.2058 15.4385 24.2058 15.4385 23.8317 15.4385C23.4927 15.4385 23.4402 15.4211 23.3349 15.2864C23.1771 15.0878 23.1771 14.8538 23.3349 14.6552C23.4519 14.5034 23.4636 14.5034 24.2058 14.5034C24.948 14.5034 24.9597 14.5034 25.0767 14.6552C25.2285 14.8481 25.2405 15.3332 25.1175 16.2566C24.6558 19.6994 22.3938 22.727 19.2375 24.1121C18.6297 24.3809 17.6943 24.6791 17.3262 24.7142C17.0574 24.7436 17.0106 24.7319 16.8762 24.5975ZM4.94675 20.9387C4.75385 20.8568 4.64855 20.6933 4.37405 20.0561C3.93575 19.0214 3.64325 18.0512 3.46205 17.0168L3.36275 16.4615L1.95995 15.9296C1.19435 15.6374 0.504649 15.3509 0.434449 15.2984C0.335149 15.2282 0.300049 15.1406 0.300049 14.9768C0.300049 14.8247 0.340849 14.7197 0.434449 14.6378C0.504649 14.5736 1.18835 14.2871 1.95995 14.0006C2.72555 13.7201 3.35675 13.457 3.36845 13.4219C3.38015 13.3928 3.43865 13.0655 3.50885 12.7031C4.09925 9.55246 6.03395 6.72376 8.85125 4.88836C9.94415 4.17526 11.6274 3.49726 12.8958 3.25756C13.188 3.19906 13.4979 3.14056 13.5855 3.11716C13.7376 3.07636 13.7844 2.98276 14.2986 1.64416C14.6025 0.860861 14.8947 0.182861 14.9475 0.142061C15.006 0.101261 15.1227 0.0661621 15.2106 0.0661621C15.5319 0.0661621 15.6315 0.229961 16.1634 1.63246C16.4439 2.36326 16.6953 2.99446 16.7127 3.02956C16.7361 3.05866 17.0985 3.15826 17.5251 3.23986C18.8109 3.49696 20.7339 4.21006 21.0789 4.55506C21.3771 4.84726 21.1725 5.38516 20.769 5.38516C20.6754 5.38516 20.319 5.25076 19.974 5.08696C18.9162 4.59016 17.6244 4.20436 16.5489 4.06996C16.3734 4.04656 16.1748 3.99406 16.1046 3.95296C16.0284 3.90046 15.8592 3.54946 15.6195 2.90656C15.4149 2.36896 15.2397 1.94206 15.228 1.95376C15.2103 1.96546 15.0468 2.38036 14.8539 2.87716C14.661 3.37396 14.4564 3.81826 14.3979 3.87076C14.3337 3.92926 14.0004 4.01116 13.4979 4.09276C8.72855 4.85326 5.03435 8.60566 4.36805 13.3694C4.31555 13.7378 4.24535 14.03 4.19285 14.0885C4.14035 14.141 3.67835 14.3573 3.16415 14.5619C2.64965 14.7722 2.22875 14.9534 2.22875 14.9711C2.22875 14.9888 2.63195 15.1523 3.12305 15.3452C3.60815 15.5321 4.05815 15.731 4.12265 15.7895C4.19855 15.8654 4.25705 16.0643 4.31555 16.4675C4.47935 17.6132 4.86485 18.8405 5.39105 19.8926C5.70095 20.5064 5.68325 20.7167 5.32685 20.9039C5.13965 21.0029 5.11055 21.0029 4.94675 20.9387Z"
        fill="#323232" />
    <path
        d="M6.151 18.9687C5.9758 18.7467 5.701 17.9925 5.5783 17.4081C5.479 16.9053 5.479 16.8996 5.5957 16.7418C5.695 16.6131 5.7709 16.5723 5.9755 16.5606C6.3202 16.5372 6.4489 16.6833 6.5833 17.2503C6.6418 17.49 6.7645 17.8932 6.8581 18.1446C7.045 18.6357 7.045 18.8052 6.8464 19.0038C6.6712 19.179 6.3028 19.1616 6.151 18.9687ZM5.3911 15.2865C5.239 15.0936 5.2273 14.6085 5.3503 13.6851C5.8588 9.88591 8.4889 6.70621 12.1246 5.49061C12.5044 5.36191 12.9604 5.24521 13.1299 5.22751C13.4104 5.19841 13.4572 5.21011 13.5916 5.34451C13.7845 5.53741 13.7902 5.79451 13.615 5.99911C13.5157 6.10441 13.3345 6.18631 12.9487 6.29131C9.5701 7.18531 6.9691 10.0377 6.373 13.4979C6.3145 13.866 6.262 14.2401 6.262 14.3337C6.262 14.5032 6.262 14.5032 6.6361 14.5032C6.9751 14.5032 7.0276 14.5206 7.1329 14.655C7.2031 14.7426 7.2556 14.883 7.2556 14.9706C7.2556 15.0582 7.2031 15.1986 7.1329 15.2862C7.0159 15.4383 7.0042 15.4383 6.262 15.4383C5.5195 15.4383 5.5078 15.4383 5.3911 15.2865ZM24.1882 13.3809C24.1297 13.3398 24.0247 13.077 23.9485 12.7788C23.8726 12.4923 23.7382 12.0717 23.6563 11.8494C23.4226 11.2356 23.4577 10.9611 23.785 10.8264C23.9254 10.7679 23.9953 10.7679 24.1531 10.8381C24.3226 10.9083 24.3754 10.9842 24.5155 11.3466C24.7027 11.826 24.9655 12.7728 24.9655 12.9657C24.9658 13.2816 24.4339 13.5681 24.1882 13.3809ZM14.8597 6.81121C14.7544 6.67681 14.737 6.57151 14.737 6.00451C14.737 5.00491 14.8246 4.94071 15.9295 5.03431C17.3497 5.15131 19.0156 5.60131 19.1734 5.90521C19.3312 6.19741 19.1734 6.56581 18.8635 6.64741C18.7759 6.66511 18.472 6.60061 18.0862 6.47791C17.5018 6.28501 16.8472 6.15061 16.099 6.06301L15.7891 6.02221V6.31441C15.7891 6.72931 15.5845 6.96331 15.2338 6.96331C15.0292 6.96331 14.9533 6.93391 14.8597 6.81121Z"
        fill="#323232" />
</svg>
