<svg width="28" height="28" viewBox="0 0 28 28" fill="none" xmlns="http://www.w3.org/2000/svg">
<path d="M3.75316 13.4037L5.78759 13.9733C5.89898 14.0044 6.01711 14.002 6.12709 13.9661L17.1764 10.3656C18.0238 11.3167 19.1679 11.9667 20.4081 12.2179C20.9542 14.6228 22.4596 15.6377 23.8898 15.6377C24.2207 15.6377 24.5477 15.5817 24.853 15.4678C26.3923 14.8938 26.9686 12.756 26.1651 10.601C26.1224 10.4873 26.0757 10.3751 26.0252 10.2647C27.3033 8.75285 27.7805 6.66 27.128 4.65773C26.3395 2.23805 24.1011 0.612305 21.558 0.612305C18.5411 0.612305 16.0138 2.91522 15.7238 5.90889L15.2597 6.06012C15.1498 6.09597 15.0529 6.16355 14.9812 6.25436L13.9149 7.60646L12.2567 7.14217C12.1453 7.11097 12.0272 7.11343 11.9172 7.14926C11.8072 7.18509 11.7103 7.25267 11.6386 7.3435L10.5723 8.69561L8.91404 8.23131C8.80264 8.20014 8.68451 8.20264 8.57453 8.23849C8.46454 8.27434 8.36763 8.34193 8.29599 8.43275L7.28519 9.71443L6.23607 9.18094C6.09755 9.11053 5.93674 9.09801 5.789 9.14613L4.67478 9.50918C4.58829 9.53737 4.50956 9.5853 4.4448 9.64919C4.38005 9.71308 4.33106 9.79117 4.30171 9.87727L3.35648 12.6504C3.33075 12.7259 3.32067 12.8058 3.32688 12.8852C3.33309 12.9646 3.35544 13.042 3.39258 13.1125C3.42971 13.183 3.48084 13.2452 3.54284 13.2953C3.60484 13.3453 3.67641 13.3822 3.75316 13.4037ZM24.4435 14.3698C23.9812 14.5422 23.4244 14.4834 22.9538 14.2129C22.5204 13.9637 21.977 13.4379 21.6481 12.332C22.9071 12.3121 24.1236 11.8859 25.1109 11.1342C25.6053 12.5828 25.3116 14.046 24.4435 14.3698ZM5.31632 10.5327L5.92119 10.3356L7.18218 10.9767C7.30292 11.0381 7.44121 11.0558 7.57352 11.0267C7.70583 10.9977 7.82396 10.9236 7.90781 10.8172L8.97416 9.46518L10.6324 9.92941C10.7438 9.96057 10.8619 9.95807 10.9719 9.92222C11.0819 9.88638 11.1788 9.81879 11.2505 9.72797L12.3168 8.37592L13.975 8.84021C14.0864 8.87138 14.2045 8.86888 14.3145 8.83304C14.4245 8.79719 14.5214 8.7296 14.5931 8.63877L15.7915 7.11926L16.4656 6.89953C16.5808 6.86198 16.6815 6.78964 16.7539 6.69247C16.8263 6.5953 16.8668 6.47808 16.8698 6.35695C16.9328 3.81217 19.0245 1.78406 21.558 1.78406C23.5923 1.78406 25.3829 3.08473 26.0137 5.02066C26.4949 6.49693 26.2078 8.02729 25.366 9.20607C24.7914 8.51912 24.0896 8.11477 23.4305 7.87869C23.8721 7.28824 24.0306 6.49963 23.7854 5.74688C23.3799 4.50258 22.0523 3.84656 20.8307 4.24453C19.6019 4.64496 18.9281 5.97041 19.3285 7.19918C19.7067 8.35998 20.8996 9.02654 22.076 8.75824C22.89 8.85475 23.8745 9.17637 24.5589 10.075C23.7097 10.7825 22.6363 11.1619 21.5562 11.1619C20.1095 11.1619 18.7196 10.4764 17.838 9.32824C17.6868 9.13131 17.4279 9.05109 17.1918 9.12797L5.93267 12.7969L4.66558 12.4421L5.31632 10.5327ZM21.5566 7.64543C21.3092 7.64576 21.068 7.56759 20.8679 7.42217C20.6677 7.27676 20.5189 7.07159 20.4427 6.83619C20.2425 6.22178 20.5795 5.55902 21.1938 5.35887C21.8067 5.15906 22.4688 5.48924 22.6711 6.10998C22.8713 6.72434 22.3529 7.64543 21.5566 7.64543ZM27.5988 22.7097C27.5292 21.9547 26.8424 21.3771 26.1999 21.1969C25.6785 21.0506 25.3228 21.1836 24.8631 21.2263C24.7511 21.2199 24.7159 21.2334 24.2948 21.3431C19.0704 22.7044 17.1112 22.9901 16.3877 22.9901C16.2231 22.9901 16.1664 22.9746 16.1655 22.9743C15.1644 22.6512 13.7657 22.3572 13.2981 21.9855C13.6484 21.9395 14.1116 22.0237 14.4574 22.1292C15.0488 22.3097 15.7125 22.4012 16.4301 22.4012C18.215 22.4011 19.9453 21.8242 20.7359 20.9658C21.1142 20.5549 21.2928 20.0781 21.2522 19.5867C21.2197 19.1916 21.0047 18.6779 20.1658 18.4753C18.8253 18.1516 16.1791 18.7045 14.636 17.3545C13.0068 15.9291 11.1245 15.2064 9.04119 15.2064C7.57154 15.2064 6.33591 15.5733 5.58298 15.8663C5.35652 15.1754 4.70595 14.6749 3.94031 14.6749H2.1239C1.17076 14.6749 0.395386 15.4503 0.395386 16.4034V24.0792C0.395386 25.0324 1.17076 25.8077 2.1239 25.8077H3.94031C4.70472 25.8077 5.35441 25.3088 5.58187 24.6196L10.1119 26.6011C11.206 27.1231 12.6005 27.3878 14.2566 27.3878C19.2926 27.3878 25.4124 24.9444 26.1618 24.5757C27.4339 23.9497 27.6454 23.2154 27.5988 22.7097ZM4.49701 24.0792C4.49701 24.3861 4.24728 24.6359 3.94037 24.6359H2.12396C1.81705 24.6359 1.56732 24.3861 1.56732 24.0792V16.4034C1.56732 16.0965 1.81705 15.8468 2.12396 15.8468H3.94037C4.24728 15.8468 4.49701 16.0965 4.49701 16.4034V23.7618V24.0792ZM25.6444 23.5242C24.9271 23.8771 19.0707 26.216 14.2566 26.216C12.7724 26.216 11.5452 25.9884 10.609 25.5398C10.5899 25.5308 10.9326 25.6812 5.66882 23.3785V17.0996C6.22148 16.8526 7.48541 16.3783 9.04113 16.3783C10.8322 16.3783 12.455 17.0035 13.8643 18.2365C15.2386 19.4389 17.1465 19.4827 18.5396 19.5146C19.0854 19.5271 19.9041 19.5459 20.0844 19.6839C20.0893 19.7439 20.1029 19.9232 19.8736 20.172C19.3096 20.7846 17.8612 21.2292 16.4299 21.2293C15.8368 21.2293 15.273 21.1529 14.7993 21.0084C14.355 20.8728 13.9085 20.8012 13.508 20.8012C12.6751 20.8012 12.3127 21.1153 12.1553 21.3788C12.0472 21.5597 11.9075 21.9408 12.187 22.4598C12.6783 23.372 14.3145 23.6082 15.8053 24.0895C15.9584 24.1389 16.1434 24.1618 16.3876 24.1618C18.1818 24.1618 23.15 22.8447 24.8866 22.4001C25.2729 22.3712 25.5411 22.3018 25.7167 22.3018C25.7745 22.3018 25.8258 22.3089 25.8832 22.325C26.1158 22.3903 26.4146 22.6301 26.4318 22.8171C26.4449 22.9582 26.2464 23.2279 25.6444 23.5242Z" fill="#323232"/>
</svg>
